<?xml version="1.0" encoding="utf-8"?>
<!-- Generator: Adobe Illustrator 27.7.0, SVG Export Plug-In . SVG Version: 6.00 Build 0)  -->
<svg version="1.1" id="Layer_1" xmlns="http://www.w3.org/2000/svg" xmlns:xlink="http://www.w3.org/1999/xlink" x="0px" y="0px"
	 viewBox="0 0 209.5 209.5" style="enable-background:new 0 0 209.5 209.5;" xml:space="preserve">
<style type="text/css">
	.st0{display:none;}
	.st1{display:inline;}
	.st2{display:inline;fill:none;stroke:#BCBEC0;stroke-width:9.999904e-02;stroke-miterlimit:9.9999;}
	.st3{clip-path:url(#SVGID_00000040552811369816937740000008489135457445281457_);}
	.st4{clip-path:url(#SVGID_00000165946596690289387730000010327686721069370267_);fill:#FF1922;}
	.st5{clip-path:url(#SVGID_00000166653492780575084530000008169406932631771321_);fill:#FF1922;}
	.st6{clip-path:url(#SVGID_00000042738449104420277860000017932975806572443062_);fill:#FF1922;}
	.st7{clip-path:url(#SVGID_00000030482427833823007050000012943416372996546461_);fill:#FF1922;}
	.st8{clip-path:url(#SVGID_00000062167461712983236340000012800738646463589258_);fill:#FF1922;}
	.st9{clip-path:url(#SVGID_00000065044945677281133360000016670465145020595901_);fill:#FF1922;}
	.st10{clip-path:url(#SVGID_00000145744503095453135500000015913366683545702314_);fill:#FF1922;}
	.st11{clip-path:url(#SVGID_00000072961831485811346710000009123150039821643933_);fill:#FF1922;}
	.st12{clip-path:url(#SVGID_00000064338985041037253440000016828194729470535827_);fill:#FF1922;}
	.st13{clip-path:url(#SVGID_00000018933683208274828030000013766724191990036096_);fill:#FF1922;}
	.st14{clip-path:url(#SVGID_00000121973050903486663350000009928741009012020376_);fill:#FF1922;}
	.st15{clip-path:url(#SVGID_00000164511601274436998810000000249401773853664697_);fill:#FF1922;}
	.st16{clip-path:url(#SVGID_00000135653053354253212070000014644118543095576248_);fill:#FF1922;}
	.st17{clip-path:url(#SVGID_00000023999512796224105790000017213887596051919792_);fill:#FF1922;}
	.st18{clip-path:url(#SVGID_00000042732400988802817460000010259286154137938352_);}
	.st19{fill:#FFFFFF;}
	.st20{font-family:'Helvetica-Bold';}
	.st21{font-size:2.9527px;}
	.st22{clip-path:url(#SVGID_00000049900854905023017440000002097218457937682365_);}
	.st23{clip-path:url(#SVGID_00000112631603522481856570000009424108585180358583_);}
	.st24{font-size:2.9529px;}
	.st25{clip-path:url(#SVGID_00000138547848624207346300000014432188527707363720_);}
	.st26{clip-path:url(#SVGID_00000163757995185824483810000018105483801088027782_);}
	.st27{clip-path:url(#SVGID_00000178197205481167845380000008331365694981153426_);}
	.st28{clip-path:url(#SVGID_00000111902571857304090760000007660985071945150636_);}
	.st29{clip-path:url(#SVGID_00000182492413472034692970000005712260096782818199_);}
	.st30{clip-path:url(#SVGID_00000081634390430031944320000015527091098125499836_);}
	.st31{clip-path:url(#SVGID_00000065790627689571535220000000843554685842634628_);}
	.st32{clip-path:url(#SVGID_00000098908281579857138520000008161040786687772843_);}
	.st33{clip-path:url(#SVGID_00000017516660810861549120000004012302477804129445_);}
	.st34{clip-path:url(#SVGID_00000060714846706762770160000003921363292248292760_);}
	.st35{font-size:2.9528px;}
	.st36{clip-path:url(#SVGID_00000122708698143856228830000002645418357249872288_);}
	.st37{font-size:2.9525px;}
	.st38{clip-path:url(#SVGID_00000120524241362565017000000000488748838915845292_);}
	.st39{clip-path:url(#SVGID_00000070089667536836697110000006989307422943286677_);}
	.st40{clip-path:url(#SVGID_00000119087551102589490720000017174267606151194755_);}
	.st41{clip-path:url(#SVGID_00000151536527483882512740000006667921552822557598_);}
	.st42{clip-path:url(#SVGID_00000178887454783528281180000014697093614975335076_);}
	.st43{fill:none;stroke:#FF1922;stroke-width:3.5;stroke-miterlimit:10;}
</style>
<g id="Logo">
</g>
<g id="Lock">
</g>
<g id="Folie" class="st0">
	<g class="st1">
		<path d="M-1274.1,68.8c-0.8,0.2-1.7,0.6-2.6,1.3c-0.1,0.1-0.3,0.2-0.4,0.3c-1,0.8-2,1.9-3,3.5c-3.3,5-9,5.6-10.7,5.6
			c-2.1,0-4.1-1.4-3.2-3c0.5-1,0.6-1.2,1.3-2.7l0,0c0.1-0.1,0.2-0.3,0.3-0.4c1.2-1.7,2.7-3.6,3.3-5.3c0.2-0.6,0.3-1.2,0.4-1.8
			c0.2-0.1,0.5-0.3,0.8-0.5c1.6-1.1,2.5-2.8,2.4-4.3c-0.1-1.1-0.7-1.3-1-1.3s-0.5,0.2-0.6,0.2l-0.1,0.1c0,0-0.7,1.1-1.9,1.1
			c-0.3,0-0.7-0.1-1-0.2c-0.8-0.4-1.1-0.4-1.3-0.4h-0.3c-0.3-0.3-0.7-0.7-1.1-1.2c-0.9-1-1.3-2.2-1.4-3.5c0-0.1,0-0.1,0-0.2
			c-0.1-1.2,0.2-3,2.1-3.9c2.2-0.9,2.8-0.9,4.4-0.1c1.5,0.8,2.4,2.5,3.6,5c0.6,1.4,1.2,2.5,1.5,3.2c0.6,2.6,4.2,5.1,5,5.6l0.1,0.1
			C-1277.8,66.3-1276.3,67.1-1274.1,68.8z"/>
		<path d="M-1308.8,124.5c-0.7,1.1-2,2.2-3.1,3.1c-1.2,1-2.2,1.8-2.5,2.7c-0.2,0.6-0.2,1.1-0.1,1.6c-0.3,0.1-0.5,0.3-0.7,0.5
			c-0.1,0.1-0.3,0.3-0.4,0.4c-0.4,0.1-1.1,0-1.2-0.2c-0.4-0.4-0.4-1.4-0.3-1.7c0.3-0.6,1-1.4,1.6-2.1c0.8-1,1.5-1.8,1.8-2.4
			c1.3-3,1.6-6.8,1.4-9c0-0.3-0.2-0.9-0.3-1.7c-0.8-4.2-2.6-14-0.3-19.7c1.5-3.6,3.1-5.1,4.2-5.7v0.1l0,0c-0.4,1.2-0.9,3.2-0.9,4.6
			c0,0,0,0-0.1,0c-1.5,0.8-2.5,4.1-1.4,6.6c0.2,0.5,0.5,0.9,0.8,1.3h-0.1c0,0.2-0.7,4,0.6,8.9
			C-1307.5,120.7-1307.5,122.4-1308.8,124.5z"/>
		<path d="M-1297.3,120.8c0.1,1.9-1,2.9-1.2,2.9l0,0l0,0c-0.3,0.2-0.5,0.4-0.9,0.6l-0.5,0.4c-2.8,2-6,4.3-7,5.8
			c-1,1.6-2.7,1.8-3.3,1.9h-0.1c-0.4,0-1.1-0.1-1.6-0.3l0,0c-0.6-0.3-0.7-0.6-0.5-1.3c0.1-0.3,1.1-1.1,1.8-1.7
			c1.2-1,2.7-2.2,3.6-3.6c1.8-2.8,1.6-5.1-0.8-14.4c-0.8-3.1-0.8-5.8-0.7-7.2c0.9,0.4,2,0.6,3.5,0.7c2.5,0.2,4.5,0.9,7.1,2.3
			c-0.3,1-0.5,2.6-0.6,4.4v0.5c-0.1,1,0.2,2.6,0.6,4.4C-1297.7,117.9-1297.4,119.6-1297.3,120.8z"/>
		<path d="M-1288.6,99.3c-4.1-1.2-6.2-2.3-10.3-5.4c-0.3-0.3-0.6-0.6-0.8-0.9c-0.6-0.8-1.3-1.7-3.1-1.6c-0.9,0.1-1.9,0.9-2.2,1.9
			c-0.3,0.7-0.2,1.5,0.2,2.1c-0.2,0-0.4-0.1-0.7-0.2c-0.9-0.2-1.6-0.4-2.1-0.5c0-1.5,0.8-4,1.2-4.9c0.2-0.4,0.4-0.8,0.6-1.4
			c0.7-1.6,1.7-2.5,2.6-3.2l0,0c2.3-1.1,7.2-1.1,9.2,1.3c0.9,1,1.5,1.6,2.7,4c0.5,1,1.1,2.5,1.4,3.1l-0.2,0.1
			c0.1,0.2,0.1,0.3,0.2,0.5C-1289.6,95.1-1289.2,96.2-1288.6,99.3z"/>
		<path d="M-1282.5,101.9c-1.1-0.7-2.6-1.6-4-2c-0.5-3.5-1.1-5-1.4-6c1.7-0.2,4-0.6,5.5-1.8C-1282.7,95.1-1282.7,99.1-1282.5,101.9z
			"/>
		<path d="M-1267.7,94.3c0,2.7,0,8.2-0.6,10.9c-0.6,2.7-3,7.3-4.1,8.1c-0.3,0.2-0.5,0.4-0.6,0.6c-0.5,0.4-1,0.7-1.5,0.8
			c-2.8,0.7-8.4-0.9-12-2.4c-1.8-1.1-3.6-2.3-5.2-3.5c-0.8-0.6-1.7-1.2-2.4-1.7c-4.2-2.9-7.2-4.1-10.8-4.4c-3.4-0.3-4-1.1-4.4-2
			c-0.7-1.7,0.1-3.8,0.5-4c0.1,0,0.1-0.1,0.2-0.1c0.2,0,0.8,0.1,2.5,0.6c3.1,0.9,3.8,0.6,4.2,0.3l0.4-0.4v-0.4
			c0.1-0.7-0.7-1.4-1.6-2.2c-0.1,0-0.2-0.1-0.1-0.4c0.1-0.4,0.4-0.6,0.5-0.7c0.6,0,0.8,0.1,1.4,0.8c0.3,0.4,0.7,0.8,1.2,1.2
			c4.9,3.7,7.3,4.7,12.9,6.3c2.5,0.7,5.5,3.1,5.6,3.1l2.8,2.2l-1.2-3.4c-0.6-1.8-0.8-10.5,0-13.6c0.3-1.1,0.5-2.9,0.8-5.1
			c0.6-4.1,1.3-9.8,2.5-11.9c0.5-0.8,1.1-1.4,1.7-1.7l0,0c0.9-0.4,1.8-0.6,2.6-0.5c0.8,0,1.6,0.8,2.1,1.4l0,0
			c1.9,3.1,1.6,7.1,1.4,9.3c-0.1,0.6-0.1,1.5,0,2.4l0,0c-1.6,2.4-3.1,4.9-4.2,7.5l1.8,0.8c0.8-1.7,1.7-3.4,2.7-5
			c0.2,1.6,0.5,3.3,0.7,4.9c0.1,0.6,0.2,1.1,0.2,1.4C-1267.8,93.8-1267.8,94.1-1267.7,94.3z"/>
		<path d="M-1281.7,125.7c-0.3,4.3-2.2,6.3-5,7.2c-0.3,0.1-0.7,0.1-1.1,0c-1.2-0.4-1.9-0.7-1.9-0.7c-0.8-0.4-2.4-1.2-3.2-2.3
			c-0.6-0.9-2-4.5-2.7-6.6l-0.1-0.3c0.2-0.6,0.4-1.4,0.3-2.4c-0.1-1.3-0.4-3.1-0.7-4.8c-0.3-1.6-0.6-3.2-0.6-3.9v-0.5
			c0-0.2,0-0.4,0-0.6c0.5,0.1,1.2,0.1,2.2,0.1c1.3-0.1,2.4,0.3,3.6,1l0,0c2.9,2,6,3.9,8.5,4.4c0.2,0.1,0.3,0.2,0.4,0.5
			C-1281.4,117.9-1281.4,122-1281.7,125.7z"/>
	</g>
	<g class="st1">
		<path d="M-1268.3,34.1l5.4,18.4l-5.9-3.3l-3.5-12.1l-4.3,7.5l-4.1-2.3l12.3-21.5l4.1,2.3l-3.5,6.1l9.8-2.5l5.9,3.3L-1268.3,34.1z"
			/>
	</g>
	<g id="XMLID_1_" class="st1">
		<g>
			<path d="M-1296.5,43.6c0.5,0.2,0.7,0.6,0.7,1.2c0,0.7-0.6,1.2-1.3,1.1c-0.7,0-1.2-0.6-1.1-1.3h0.3c0,0.5,0.4,0.9,0.8,0.9
				c0.5,0,0.9-0.4,0.9-0.8c0-0.3-0.1-0.6-0.5-0.9c-0.4-0.2-0.9,0-1.1,0.1l-0.2-0.2l0.8-1.6l1.4,0.1v0.3l-1.2-0.1l-0.5,1
				C-1297.2,43.5-1296.9,43.5-1296.5,43.6z"/>
			<path d="M-1301.4,45.9c-0.7,0-1.3-0.6-1.4-1.3c0-0.7,0.5-1.3,1.3-1.4c0.6,0,1.1,0.4,1.3,1c0,0.1,0,0.2,0,0.3l0,0l0,0h-0.3h-0.9
				h-1c0,0.5,0.5,1,1,0.9c0.3,0,0.5-0.1,0.7-0.3l0.2,0.2C-1300.7,45.7-1301,45.9-1301.4,45.9z"/>
			<path d="M-1304.8,44.1c0,0.3,0.3,0.3,0.7,0.4c0.2,0.1,0.4,0.1,0.6,0.2c0.2,0.1,0.3,0.3,0.3,0.5s-0.1,0.4-0.3,0.5
				c-0.2,0.1-0.4,0.2-0.6,0.2c-0.5,0-1-0.2-1-0.7h0.3c0,0.2,0.3,0.4,0.6,0.4c0.3,0,0.6-0.2,0.6-0.5c0-0.2-0.3-0.3-0.7-0.4
				c-0.4-0.1-0.9-0.2-1-0.7c0-0.2,0.1-0.4,0.3-0.6c0.2-0.1,0.4-0.2,0.6-0.2c0.5,0,1,0.2,1,0.7h-0.3c0-0.2-0.3-0.4-0.6-0.4
				C-1304.5,43.7-1304.8,43.9-1304.8,44.1z"/>
			<path d="M-1306.5,43.8c-0.3,0-0.6,0.2-0.6,0.5s0.3,0.3,0.7,0.4c0.2,0,0.4,0.1,0.6,0.1c0.2,0.1,0.3,0.3,0.4,0.5
				c0,0.2-0.1,0.4-0.2,0.6c-0.2,0.1-0.4,0.2-0.6,0.3c-0.5,0-1-0.2-1-0.7h0.3c0,0.2,0.4,0.4,0.7,0.4c0.3,0,0.6-0.3,0.6-0.5
				s-0.3-0.3-0.7-0.3c-0.4-0.1-0.9-0.2-1-0.7c0-0.2,0.1-0.4,0.2-0.6c0.2-0.1,0.4-0.2,0.6-0.3c0.4-0.1,1,0.2,1,0.6h-0.3
				C-1305.9,44-1306.2,43.8-1306.5,43.8z"/>
			<path d="M-1308,43.8l0.4,2.5l-0.3,0.1l-0.1-0.5c-0.2,0.3-0.5,0.6-0.9,0.6c-0.7,0.1-1.4-0.4-1.5-1.1c-0.1-0.7,0.4-1.4,1.1-1.5
				c0.4-0.1,0.8,0.1,1.1,0.3l-0.1-0.4L-1308,43.8z"/>
			<path d="M-1314.6,45.2l0.5,2.3l-0.3,0.1l-0.6-2.7v-0.1c-0.1-0.4,0.2-0.8,0.5-0.9l0.1,0.3c-0.2,0.1-0.4,0.3-0.3,0.5l0.1,0.3
				l0.4-0.1l0.1,0.3L-1314.6,45.2z"/>
			<path d="M-1311.1,44.2l0.2,1.3c0.1,0.7-0.3,1.4-1.1,1.6c-0.2,0-0.5,0-0.7-0.1c-0.1,0-0.1,0.1-0.1,0.2c0,0.1,0.1,0.1,0.2,0.1l0,0
				h0.1l1-0.2c0.4-0.1,0.8,0.2,0.9,0.6c0.1,0.4-0.2,0.8-0.6,0.9l-1.1,0.2c-0.4,0.1-0.8-0.2-0.9-0.6c0-0.2,0-0.5,0.2-0.7
				c-0.1-0.1-0.1-0.2-0.1-0.3s0-0.3,0.1-0.4c-0.3-0.2-0.5-0.5-0.6-0.9c-0.1-0.7,0.3-1.4,1.1-1.6c0.4-0.1,0.8,0,1.1,0.3l-0.1-0.5
				L-1311.1,44.2z"/>
			<path d="M-1315.2,46.3c0.2,0.7-0.2,1.4-0.9,1.6c-0.7,0.2-1.4-0.2-1.6-0.9s0.2-1.4,0.9-1.6C-1316.1,45.2-1315.4,45.6-1315.2,46.3z
				"/>
			<path d="M-1319.6,46.2c0.5-0.2,1,0.1,1.2,0.6l0.5,1.6l-0.3,0.1l-0.5-1.6c-0.1-0.3-0.5-0.5-0.8-0.4s-0.5,0.5-0.4,0.8l0.5,1.6
				l-0.3,0.1l-0.5-1.6l-0.6-1.9l0.3-0.1l0.4,1.2C-1320,46.4-1319.8,46.3-1319.6,46.2z"/>
			<polygon points="-1323.5,46.6 -1322.2,49.9 -1322.5,50 -1323.8,46.7 			"/>
			<polygon points="-1322.5,47.2 -1321,46.7 -1320.9,47 -1321.5,49.3 -1320.3,48.9 -1320.2,49.2 -1321.7,49.8 -1321.8,49.5 
				-1321.2,47.1 -1322.4,47.5 			"/>
			<path d="M-1323.9,47.9l1,2.3l-0.3,0.1l-0.2-0.4c-0.1,0.4-0.4,0.7-0.8,0.8c-0.7,0.3-1.5,0-1.8-0.7s0-1.4,0.7-1.7
				c0.4-0.2,0.8-0.1,1.1,0l-0.1-0.3L-1323.9,47.9z"/>
			<path d="M-1331.6,52.5l-1-1.7l0.3-0.1l0.6,1.1c0.1-0.2,0.2-0.4,0.4-0.5c0.4-0.2,1-0.1,1.3,0.4l0.8,1.5l-0.3,0.1l-0.8-1.5
				c-0.2-0.3-0.6-0.4-0.9-0.2s-0.4,0.6-0.2,0.9l0.8,1.5l-0.3,0.1L-1331.6,52.5L-1331.6,52.5z"/>
			<path d="M-1327.7,49.4c0.5-0.2,1,0,1.3,0.4l0.7,1.5l-0.3,0.1l-0.8-1.5c-0.1-0.3-0.5-0.4-0.8-0.3c-0.3,0.1-0.4,0.5-0.3,0.8
				l0.8,1.5l-0.3,0.1l-0.8-1.5c-0.1-0.2-0.3-0.4-0.6-0.4c-0.1,0-0.2,0-0.3,0.1c-0.3,0.1-0.4,0.5-0.3,0.8l0.8,1.5l-0.3,0.1l-0.8-1.5
				l0,0l-0.3-0.7l0.3-0.1v0.1c0.1-0.2,0.2-0.4,0.5-0.5s0.6-0.1,0.9,0C-1328.2,49.8-1328,49.6-1327.7,49.4z"/>
			<path d="M-1334,53.3c0.2-0.7,0.9-1.1,1.6-1l-0.1,0.3c-0.5-0.1-1.1,0.2-1.2,0.8c-0.1,0.3,0,0.5,0.1,0.8c0.1,0.2,0.4,0.4,0.6,0.5
				c0.6,0.1,1.1-0.2,1.2-0.8l0.3,0.1c-0.1,0.4-0.3,0.6-0.6,0.8c-0.3,0.2-0.6,0.2-1,0.2c-0.4-0.1-0.6-0.3-0.8-0.6
				C-1334,54-1334.1,53.7-1334,53.3z"/>
			<path d="M-1335.5,54.7c0.2-0.1,0.5-0.2,0.8-0.2s0.5,0.1,0.7,0.3c0.3,0.5,0.1,1.1-0.4,1.5c-0.2,0.2-0.5,0.2-0.8,0.2
				s-0.6-0.2-0.7-0.4l0.3-0.2c0.1,0.2,0.3,0.2,0.5,0.2s0.4,0,0.6-0.2c0.4-0.3,0.5-0.7,0.3-1.1c-0.2-0.3-0.5-0.2-1.1,0
				c-0.3,0.1-0.5,0.2-0.8,0.2s-0.6-0.1-0.7-0.4c-0.3-0.5-0.1-1.1,0.4-1.5c0.2-0.2,0.5-0.2,0.8-0.2s0.6,0.2,0.7,0.4l-0.3,0.2
				c-0.1-0.1-0.3-0.2-0.5-0.2s-0.4,0-0.6,0.2c-0.4,0.3-0.5,0.7-0.3,1.1C-1336.4,55-1336.1,54.9-1335.5,54.7z"/>
			<path d="M-1356.1,74.1c0.1-0.2,0.3-0.2,0.5-0.1s0.2,0.3,0.1,0.5s-0.3,0.2-0.5,0.1S-1356.2,74.3-1356.1,74.1z"/>
			<path d="M-1340.3,60.3c0,0.4-0.2,0.7-0.5,1c-0.6,0.5-1.4,0.4-1.9-0.1c-0.5-0.6-0.5-1.4,0.1-1.9l0,0l0,0c0.6-0.5,1.4-0.4,1.9,0.2
				c0.1,0.1,0.1,0.1,0.1,0.2l0,0l0,0l-1.4,1.2c0.2,0.1,0.6,0.1,0.8-0.1c0.1-0.1,0.2-0.3,0.2-0.5L-1340.3,60.3z"/>
			<polygon points="-1342.2,62.6 -1342.7,63 -1345.1,60.4 -1344.6,60 			"/>
			<path d="M-1343.4,63.7l-0.5,0.5l-1.8-1.8l0.4-0.4c0.1-0.2,0.1-0.3,0.3-0.5l0.1-0.1l0.5,0.5l-0.2,0.1c-0.1,0.1-0.1,0.4,0,0.5
				l0.1,0.1L-1343.4,63.7z"/>
			<path d="M-1345.2,63.6c0.6,0.5,0.6,1.4,0.1,1.9c-0.5,0.6-1.4,0.6-1.9,0.1s-0.6-1.4-0.1-1.9C-1346.6,63.1-1345.7,63.1-1345.2,63.6
				z"/>
			<path d="M-1349.2,66.1c0.2-0.2,0.4-0.3,0.6-0.4v-0.1l0.4-0.5l2,1.7l-0.4,0.5l-0.1-0.1c0,0.2-0.1,0.5-0.3,0.6
				c-0.5,0.6-1.4,0.6-1.9,0.2C-1349.7,67.5-1349.7,66.6-1349.2,66.1z"/>
			<polygon points="-1349.2,70.4 -1349.6,70.9 -1352.5,68.7 -1352.1,68.2 -1350.8,69.1 -1350.9,68.2 -1350.3,67.4 -1350.1,69.3 
				-1348.2,69.1 -1348.8,69.8 -1349.7,70 			"/>
			<polygon points="-1349.8,71.2 -1351.1,73 -1351.6,72.6 -1350.4,70.8 			"/>
			<polygon points="-1351.9,74.3 -1351.9,74.3 -1351.9,74.3 -1352.1,74.6 -1354.9,73.9 -1354.5,73.3 -1353,73.6 -1354,72.4 
				-1353.6,71.8 -1351.8,74.1 			"/>
			<polygon points="-1352.7,75.7 -1353.1,76.3 -1355.4,74.9 -1355.1,74.3 			"/>
			<polygon points="-1353.8,77.5 -1357,75.7 -1356.6,75.1 -1355.8,75.6 -1355.7,75.3 -1355.1,75.6 -1355.3,75.9 -1353.5,76.9 			"/>
			<polygon points="-1355.1,80 -1358.3,78.3 -1358,77.7 -1356.6,78.4 -1356.9,77.5 -1356.4,76.7 -1355.9,78.5 -1354,77.9 
				-1354.4,78.8 -1355.4,79.1 -1354.8,79.4 			"/>
			<path d="M-1358.3,80.3c0.3-0.7,1.1-0.9,1.8-0.6c0.1,0,0.1,0.1,0.2,0.1l0,0l0,0l-0.8,1.7c0.3,0,0.5-0.1,0.7-0.4
				c0.1-0.2,0.1-0.4,0-0.5l0.6-0.2c0.1,0.3,0.1,0.7,0,1.1c-0.3,0.7-1.1,1-1.8,0.7C-1358.3,81.8-1358.6,81-1358.3,80.3L-1358.3,80.3
				L-1358.3,80.3z"/>
			<polygon points="-1359.8,81.7 -1356.5,83.1 -1356.8,83.8 -1360.1,82.4 			"/>
			<polygon points="-1357.2,84.9 -1360.6,83.6 -1360.3,83 -1357,84.3 			"/>
			<path d="M-1357.9,86.6c-0.3,0.7-1,1.1-1.8,0.8c-0.7-0.3-1.1-1-0.8-1.8c0.3-0.7,1-1.1,1.8-0.8C-1358,85.1-1357.6,85.9-1357.9,86.6
				z"/>
			<polygon points="-1358.7,89.2 -1359.6,89.6 -1358.9,89.8 -1359.1,90.5 -1362.6,89.4 -1362.4,88.8 -1360.9,89.2 -1361.3,88.4 
				-1361,87.5 -1360.1,89.2 -1358.4,88.2 			"/>
			<path d="M-1258,107.1c7.1-12.5,10.9-15.7,10.9-15.7l-1.2-1.6c-0.2,0.1-4,3.3-11.4,16.3L-1258,107.1z M-1248,38.7l3.9,3.8
				l-14,14.5l3.4,3.3l14-14.5l3.9,3.8l3.3-3.4l-11.2-10.8L-1248,38.7z M-1229.8,119.1c0-1-0.9-1.8-2-1.8c-0.8,0-1.2,0.4-1.5,0.7
				c-0.3,0.4-0.5,0.9-0.5,1.3v0.4h1.3v-0.4c0-0.5,0.4-0.7,0.7-0.7c0.4,0,0.7,0.2,0.7,0.5c0,0.6-0.7,1.4-1.3,2
				c-0.7,0.8-1.4,1.5-1.4,2.4v0.6h4v-1.3h-2.4c0.2-0.3,0.5-0.6,0.7-0.8C-1230.6,121.1-1229.8,120.2-1229.8,119.1z M-1223.5,120.7
				c0-1.2-0.2-2-0.5-2.5c-0.3-0.6-0.9-0.9-1.5-0.9s-1.2,0.3-1.5,0.9c-0.3,0.5-0.5,1.4-0.5,2.5s0.2,2,0.5,2.5
				c0.3,0.6,0.9,0.9,1.5,0.9s1.2-0.3,1.5-0.9C-1223.6,122.7-1223.5,121.9-1223.5,120.7z M-1259.9,109.1c-0.9-3.1-3-7.9-4.4-9.6
				c-0.9-1.1-1.1-3.4-1.3-5c0-0.4-0.1-0.8-0.1-1.1c0-0.3-0.1-0.8-0.2-1.4c-0.3-1.8-0.8-4.8-1-7.2c8.6-12.6,22.3-23.3,22.5-23.4
				l-1.2-1.6c-0.6,0.5-12.7,9.9-21.3,21.6c0.2-2.9,0.4-8.3-3.3-11.8c-3.5-3.2-6-4.7-6.4-4.9c-1.7-1.1-3.8-3.1-4.1-4.3
				c0-0.1,0-0.4,0-0.7c0,0,0,0,0-0.1c0.1-0.5,0.4-1.2,0.8-1.8l0,0c0.3-0.4,0.8-0.8,1.4-1.2c2.7-1.5,3.7-1.5,6.7-1.4
				c1.4,0.1,3.1,0,4.7-0.2c0.1,0,0.3,0,0.4-0.1c0.2,0,0.3-0.1,0.5-0.1l0,0c1.5-0.3,2.9-0.8,3.9-1.7c2.2-1.8,2.9-2.3,4.2-4.3
				c0,0,0,0,0-0.1c0.4-0.5,0.9-1.1,1.3-1.7c1.6-1.7,3.9-3.2,5-4.4c1.4-1.5,4.2-5,4.6-9.1s-1-6.8-3.9-8.9c-2.9-2.2-3.6-2.8-5.7-3.9
				c-0.3-0.1-0.5-0.3-0.8-0.4c-0.2-0.1-0.4-0.2-0.6-0.3c-0.2-0.1-0.4-0.2-0.6-0.2c-0.1-0.1-0.2-0.1-0.4-0.1
				c-1.6-0.5-3.3-0.8-5.1-0.5c-0.4,0.1-0.8,0.1-1.2,0.2c-2,0.2-4.3,0.4-6.6,1.4c-3.5,1.7-5.1,3.1-6.8,5.3c-1.4,1.8-2.6,5.2-3.7,8.4
				c-0.8,2.4-1.7,4.9-2.3,5.6c-0.5,0.5-1.6,1.3-2.7,2.2c-2.9,2.2-6.5,4.8-7.6,7.7c-1.8,4.6-1.5,8.7,0.8,11.4
				c1.3,1.6,2.2,2.1,3.5,2.7c0.2,0.4,0.6,2,0,3.5c-0.5,1.4-1.9,3.3-3,4.8c-0.5,0.7-1,1.4-1.4,1.9c-0.3,0.5-0.9,1-1.6,1.6l0,0
				c-0.6,0.4-1.1,0.9-1.6,1.4l0,0c-0.8,0.7-1.5,1.4-1.9,2.1l0,0c-0.6,0.8-0.8,1.9-1,2.7l0,0c-0.1,0.2-0.1,0.3-0.2,0.5
				c-1.3,0.3-4.3,1.5-5.9,5.2c0,0,0,0.1-0.1,0.1c-1.2,0.1-4.6,1.1-7.1,7.3c-2.6,6.2-0.7,16.5,0.2,20.8c0.1,0.8,0.2,1.3,0.3,1.6
				c0.2,2,0,5.3-1.2,8c-0.2,0.4-0.9,1.2-1.5,2c-0.7,0.8-1.4,1.7-1.8,2.4c-0.6,1-0.4,3,0.6,4.1c0.8,0.8,2.3,1.1,3.4,0.7
				c0.5-0.2,0.8-0.5,1.1-0.7l0.1-0.1c0.2,0.1,0.5,0.1,0.7,0.2c0.9,0.2,2.1,0.5,3,0.5c0.9-0.1,3.3-0.5,4.8-2.7c0.9-1.3,4.7-4,6.5-5.3
				l0.5-0.4c0.5-0.3,0.9-0.6,1.2-0.8c0.6,1.8,1.8,4.9,2.6,5.9c1.1,1.5,3,2.4,3.9,2.9c0,0,4.2,2,9.6,2c5,0,9.4-1.7,12.8-5
				c2.4-2.3,4.2-4.9,5.5-7.4c1.2-1.9,2.1-3.8,2.5-5.6c0.2-1,0.3-2,0.3-3C-1259.5,112.4-1259.6,110.3-1259.9,109.1z M-1296.7,43.9
				c0.5,0.2,0.5,0.6,0.5,0.9c0,0.5-0.5,0.9-0.9,0.8c-0.5,0-0.9-0.4-0.8-0.9h-0.3c0,0.7,0.5,1.2,1.1,1.3c0.7,0,1.2-0.5,1.3-1.1
				c0-0.5-0.2-0.9-0.7-1.2c-0.3-0.1-0.7-0.1-1-0.1l0.5-1l1.2,0.1v-0.3l-1.4-0.1l-0.8,1.6l0.2,0.2
				C-1297.6,43.9-1297.1,43.7-1296.7,43.9z M-1304.1,40.3l14.6,1.3l0.4-4.7l-9.9-0.9l0.5-6l9.9,0.9l0.4-4.7l-9.9-0.9l0.4-4.7
				l9.9,0.9l0.4-4.7l-14.6-1.3L-1304.1,40.3z M-1300.7,45.2c-0.2,0.2-0.4,0.3-0.7,0.3c-0.5,0-1-0.4-1-0.9h1h0.9h0.3l0,0l0,0
				c0-0.1,0-0.2,0-0.3c-0.1-0.6-0.6-1-1.3-1c-0.7,0-1.3,0.6-1.3,1.4c0,0.7,0.6,1.3,1.4,1.3c0.4,0,0.7-0.2,0.9-0.4L-1300.7,45.2z
				 M-1304,45.7c-0.3,0-0.6-0.2-0.6-0.4h-0.3c0,0.4,0.5,0.7,1,0.7c0.2,0,0.5-0.1,0.6-0.2c0.2-0.1,0.3-0.4,0.3-0.5
				c0-0.2-0.1-0.4-0.3-0.5c-0.2-0.1-0.4-0.1-0.6-0.2c-0.4-0.1-0.7-0.2-0.7-0.4s0.3-0.4,0.6-0.5c0.3,0,0.6,0.2,0.6,0.4h0.3
				c0-0.4-0.5-0.7-1-0.7c-0.2,0-0.5,0.1-0.6,0.2c-0.2,0.2-0.3,0.4-0.3,0.6c0,0.5,0.5,0.6,1,0.7c0.4,0.1,0.7,0.2,0.7,0.4
				C-1303.4,45.4-1303.7,45.6-1304,45.7z M-1307.1,44.3c0-0.2,0.2-0.5,0.6-0.5c0.3,0,0.6,0.1,0.7,0.4h0.3c0-0.4-0.6-0.7-1-0.6
				c-0.2,0-0.5,0.1-0.6,0.3c-0.2,0.2-0.3,0.4-0.2,0.6c0,0.5,0.6,0.6,1,0.7c0.4,0.1,0.7,0.1,0.7,0.3s-0.2,0.5-0.6,0.5
				c-0.3,0-0.6-0.1-0.7-0.4h-0.3c0,0.4,0.6,0.7,1,0.7c0.2,0,0.5-0.1,0.6-0.3c0.2-0.2,0.3-0.4,0.2-0.6c0-0.2-0.1-0.4-0.4-0.5
				c-0.2-0.1-0.4-0.1-0.6-0.1C-1306.8,44.6-1307.1,44.6-1307.1,44.3z M-1308,46.4l0.3-0.1l-0.4-2.5h-0.3l0.1,0.4
				c-0.3-0.3-0.7-0.4-1.1-0.3c-0.7,0.1-1.2,0.8-1.1,1.5s0.8,1.2,1.5,1.1c0.4-0.1,0.8-0.3,0.9-0.6L-1308,46.4z M-1310.9,45.5
				l-0.2-1.3h-0.3l0.1,0.5c-0.3-0.2-0.7-0.4-1.1-0.3c-0.7,0.1-1.2,0.8-1.1,1.6c0.1,0.4,0.3,0.7,0.6,0.9c-0.1,0.1-0.1,0.2-0.1,0.4
				c0,0.1,0.1,0.2,0.1,0.3c-0.2,0.2-0.3,0.4-0.2,0.7c0.1,0.4,0.5,0.7,0.9,0.6l1.1-0.2c0.4-0.1,0.7-0.5,0.6-0.9s-0.5-0.7-0.9-0.6
				l-1,0.2h-0.1l0,0c-0.1,0-0.2-0.1-0.2-0.1c0-0.1,0-0.1,0.1-0.2c0.2,0.1,0.4,0.1,0.7,0.1C-1311.2,46.9-1310.7,46.2-1310.9,45.5z
				 M-1316.2,48c0.7-0.2,1.1-0.9,0.9-1.6c-0.2-0.7-0.9-1.1-1.6-0.9c-0.7,0.2-1.1,0.9-0.9,1.6C-1317.6,47.7-1316.9,48.2-1316.2,48z
				 M-1314.1,47.5l-0.5-2.3l0.4-0.1l-0.1-0.3l-0.4,0.1l-0.1-0.3c0-0.2,0.1-0.4,0.3-0.5l-0.1-0.3c-0.4,0.1-0.6,0.5-0.5,0.9v0.1
				l0.6,2.7L-1314.1,47.5z M-1318.4,46.8c-0.2-0.5-0.7-0.8-1.2-0.6c-0.2,0.1-0.4,0.2-0.5,0.4l-0.4-1.2l-0.3,0.1l0.6,1.9l0.5,1.6
				l0.3-0.1l-0.5-1.6c-0.1-0.3,0.1-0.7,0.4-0.8s0.7,0.1,0.8,0.4l0.5,1.6l0.3-0.1L-1318.4,46.8z M-1322.9,50.2l-1-2.3l-0.3,0.1
				l0.1,0.3c-0.3-0.2-0.8-0.2-1.1,0c-0.7,0.3-1,1.1-0.7,1.7c0.3,0.7,1.1,1,1.8,0.7c0.4-0.2,0.6-0.5,0.8-0.8l0.2,0.4L-1322.9,50.2z
				 M-1322.7,44l12.5-2.7l-1-4.6l-7.9,1.7l-4.3-19.7l-4.6,1L-1322.7,44z M-1322.2,49.9l-1.3-3.4l-0.3,0.1l1.3,3.4L-1322.2,49.9z
				 M-1321,46.7l-1.5,0.6l0.1,0.3l1.2-0.4l-0.6,2.4l0.1,0.3l1.6-0.6l-0.1-0.3l-1.2,0.4l0.6-2.4L-1321,46.7z M-1326.4,49.9
				c-0.2-0.5-0.8-0.7-1.3-0.4c-0.3,0.1-0.5,0.4-0.5,0.7c-0.3-0.2-0.6-0.2-0.9,0c-0.2,0.1-0.4,0.3-0.5,0.5v-0.1l-0.3,0.1l0.3,0.7l0,0
				l0.8,1.5l0.3-0.1l-0.8-1.5c-0.1-0.3,0-0.7,0.3-0.8c0.1,0,0.2-0.1,0.3-0.1c0.2,0,0.5,0.1,0.6,0.4l0.8,1.5l0.3-0.1l-0.8-1.5
				c-0.1-0.3,0-0.7,0.3-0.8c0.3-0.2,0.7,0,0.8,0.3l0.8,1.5l0.3-0.1L-1326.4,49.9z M-1332.6,50.8l1,1.7l0,0l0.8,1.5l0.3-0.1l-0.8-1.5
				c-0.2-0.3,0-0.7,0.2-0.9c0.3-0.2,0.7-0.1,0.9,0.2l0.8,1.5l0.3-0.1l-0.8-1.5c-0.2-0.5-0.8-0.6-1.3-0.4c-0.2,0.1-0.4,0.3-0.4,0.5
				l-0.6-1.1L-1332.6,50.8z M-1332.9,54.6c-0.3-0.1-0.5-0.2-0.6-0.5c-0.1-0.2-0.2-0.5-0.1-0.8c0.1-0.5,0.7-0.9,1.2-0.8l0.1-0.3
				c-0.7-0.2-1.4,0.3-1.6,1c-0.1,0.3,0,0.7,0.2,1s0.5,0.5,0.8,0.6c0.4,0.1,0.7,0,1-0.2s0.5-0.5,0.6-0.8l-0.3-0.1
				C-1331.8,54.4-1332.4,54.8-1332.9,54.6z M-1339.7,52.7l11.2-6.2l-2.3-4.1l-7.1,3.9l-9.7-17.7l-4.1,2.3L-1339.7,52.7z M-1335,53.5
				c-0.1-0.2-0.4-0.4-0.7-0.4c-0.3,0-0.6,0-0.8,0.2c-0.5,0.4-0.7,1-0.4,1.5c0.2,0.2,0.4,0.4,0.7,0.4c0.3,0,0.5-0.1,0.8-0.2
				c0.5-0.2,0.9-0.2,1.1,0c0.2,0.3,0.1,0.8-0.3,1.1c-0.2,0.1-0.4,0.2-0.6,0.2s-0.4-0.1-0.5-0.2l-0.3,0.2c0.1,0.2,0.4,0.4,0.7,0.4
				c0.3,0,0.6,0,0.8-0.2c0.5-0.4,0.7-1,0.4-1.5c-0.1-0.2-0.4-0.4-0.7-0.3c-0.2,0-0.5,0.1-0.8,0.2c-0.6,0.2-1,0.3-1.2-0.1
				c-0.2-0.3-0.1-0.8,0.3-1.1c0.2-0.1,0.4-0.2,0.6-0.2s0.4,0.1,0.5,0.2L-1335,53.5z M-1345.1,65.5c0.5-0.5,0.5-1.4-0.1-1.9
				s-1.4-0.5-1.9,0.1c-0.5,0.5-0.5,1.4,0.1,1.9C-1346.5,66.1-1345.6,66.1-1345.1,65.5z M-1343.9,64.2l0.5-0.5l-1.1-1.1l-0.1-0.1
				c-0.1-0.1-0.1-0.4,0-0.5l0.2-0.1l-0.5-0.5l-0.1,0.1c-0.1,0.1-0.2,0.3-0.3,0.5l-0.4,0.4L-1343.9,64.2z M-1342.7,63l0.5-0.5
				l-2.5-2.6l-0.5,0.5L-1342.7,63z M-1342,60.9l1.4-1.2l0,0l0,0c0-0.1-0.1-0.1-0.1-0.2c-0.5-0.6-1.3-0.6-1.9-0.2l0,0l0,0
				c-0.5,0.5-0.6,1.3-0.1,1.9c0.5,0.6,1.4,0.6,1.9,0.1c0.3-0.3,0.4-0.6,0.5-1h-0.7c0,0.2-0.1,0.4-0.2,0.5
				C-1341.5,61-1341.8,61-1342,60.9z M-1353.1,76.3l0.4-0.6l-2.4-1.4l-0.3,0.6L-1353.1,76.3z M-1351.8,74.1l-1.8-2.2l-0.4,0.6l1,1.2
				l-1.5-0.4l-0.4,0.6l2.8,0.7l0.1-0.2l0,0l0,0L-1351.8,74.1z M-1349.8,71.2l-0.6-0.4l-1.3,1.8l0.6,0.4L-1349.8,71.2z M-1348.2,69.1
				l-2,0.3l-0.2-1.9l-0.6,0.8l0.1,0.9l-1.2-1l-0.4,0.5l2.9,2.2l0.4-0.6l-0.5-0.4l1-0.1L-1348.2,69.1z M-1349.1,68
				c0.6,0.5,1.5,0.4,1.9-0.2c0.2-0.2,0.3-0.4,0.3-0.6l0.1,0.1l0.4-0.5l-2-1.7l-0.4,0.5v0.1c-0.2,0.1-0.4,0.2-0.6,0.4
				C-1349.7,66.6-1349.7,67.5-1349.1,68z M-1356.1,74.1c-0.1,0.2,0,0.4,0.1,0.5c0.2,0.1,0.4,0,0.5-0.1c0.1-0.2,0-0.4-0.1-0.5
				C-1355.8,73.9-1356,73.9-1356.1,74.1z M-1357,75.7l3.2,1.8l0.3-0.6l-1.8-1l0.2-0.3l-0.6-0.3l-0.2,0.3l-0.8-0.4L-1357,75.7z
				 M-1382.4,124.1v-6.8h-1.3v6.8H-1382.4z M-1376.1,124.1v-1.3h-2.7v-1.7h2.7v-1.3h-2.7v-1.3h2.7v-1.3h-4v6.8h4V124.1z
				 M-1373.8,117.3v6.8h1.3v-4.2l2.7,4.2h0.6l0,0l0,0h0.5v-6.8h-1.3v4.2l-2.7-4.2h-0.6l0,0l0,0H-1373.8z M-1370,66.6
				c5.2,4.4,13.1,3.8,17.5-1.4s3.8-13.1-1.5-17.5c-5.2-4.4-13.1-3.8-17.5,1.5C-1375.9,54.4-1375.3,62.2-1370,66.6z M-1361.9,80.6
				l2.5-6.3l-17.4,8l-6.4-15.4l-2.5,6.3l3.9,9.3l-6.5-2.5l-1.7,4.4l23.1,9l1.7-4.4l-8-3.1L-1361.9,80.6z M-1357.9,86.6
				c0.2-0.7-0.1-1.5-0.8-1.8c-0.7-0.2-1.5,0.1-1.8,0.8c-0.2,0.7,0.1,1.5,0.8,1.8C-1358.9,87.7-1358.1,87.3-1357.9,86.6z
				 M-1356.5,83.1l-3.3-1.4l-0.3,0.6l3.3,1.4L-1356.5,83.1z M-1360.6,83.6l3.3,1.3l0.3-0.6l-3.3-1.3L-1360.6,83.6z M-1358.4,88.2
				l-1.7,1l-0.9-1.7l-0.3,0.9l0.4,0.8l-1.5-0.5l-0.2,0.7l3.5,1l0.2-0.6l-0.6-0.2l0.9-0.5L-1358.4,88.2z M-1358.3,80.3
				c-0.3,0.7,0,1.4,0.7,1.8c0.7,0.3,1.5,0,1.8-0.7c0.2-0.4,0.2-0.7,0-1.1l-0.6,0.2c0.1,0.2,0.1,0.4,0,0.5c-0.1,0.3-0.4,0.4-0.7,0.4
				l0.8-1.7l0,0l0,0c-0.1,0-0.1-0.1-0.2-0.1C-1357.1,79.4-1357.9,79.6-1358.3,80.3L-1358.3,80.3L-1358.3,80.3z M-1358.3,78.3
				l3.2,1.7l0.3-0.6l-0.6-0.3l0.9-0.3l0.4-0.9l-1.9,0.6l-0.6-1.9l-0.4,0.9l0.3,0.9l-1.4-0.7L-1358.3,78.3z M-1389.6,120.2l0.9,3.9
				h1.1l1.6-6.8h-1.3l-0.9,3.6l-0.9-3.6h-1.3l-0.9,3.6l-0.9-3.6h-1.3l1.6,6.8h1.1L-1389.6,120.2z M-1217.2,119.1c0-1-0.9-1.8-2-1.8
				c-0.8,0-1.2,0.4-1.5,0.7c-0.3,0.4-0.5,0.9-0.5,1.3v0.4h1.3v-0.4c0-0.5,0.4-0.7,0.7-0.7c0.4,0,0.7,0.2,0.7,0.5
				c0,0.6-0.7,1.4-1.3,2c-0.7,0.8-1.4,1.5-1.4,2.4v0.6h4v-1.3h-2.4c0.2-0.3,0.5-0.6,0.7-0.8C-1218,121.1-1217.2,120.2-1217.2,119.1z
				 M-1214.4,123.3c0.3,0.6,0.9,0.9,1.5,0.9c0.7,0,1.2-0.3,1.5-0.9c0.3-0.5,0.5-1.4,0.5-2.5s-0.2-2-0.5-2.5
				c-0.3-0.6-0.9-0.9-1.5-0.9c-0.7,0-1.2,0.3-1.5,0.9c-0.3,0.5-0.5,1.4-0.5,2.5S-1214.8,122.7-1214.4,123.3z M-1301.5,5.3
				c54.8,0,99.2,44.4,99.2,99.2s-44.4,99.2-99.2,99.2s-99.2-44.4-99.2-99.2C-1400.7,49.8-1356.3,5.3-1301.5,5.3z M-1211.2,91.7
				l-1.3-4.8l-16.4-0.8l13.8-8.9l-1.3-4.8l-22,14.1l0.5,1.9l0,0h0.1l0.5,1.9L-1211.2,91.7z M-1223.2,60.6l-2.4-4l-21.2,12.9l2.4,4
				L-1223.2,60.6z M-1236.6,171.3l9.3-11.3l-3.6-3l-6.3,7.7l-4.7-3.9l6.3-7.7l-3.6-3l-6.4,7.7l-3.7-3l6.3-7.7l-3.6-3l-9.3,11.3
				L-1236.6,171.3z M-1246.6,179.7l-2.6-3.9l-6.7,4.5l-11.2-16.8l-3.9,2.6l13.8,20.7L-1246.6,179.7z M-1254.1,147.8l0.6-1.9
				c-4.2-1.4-9.1-0.4-13.7,0.7c-3.3,0.7-6.8,1.5-9.8,1.3c-3.3-0.2-5-1.1-7-2.1c-2.3-1.2-4.9-2.5-10.3-2.7c-5.8-0.2-9.5,1.7-12.7,3.4
				c-2.3,1.2-4.4,2.3-6.7,2.3l0,0c-4,0-6.2-1-9-2.3c-1.9-0.9-4-1.9-7.1-2.7c-7.6-2-18.1,3.8-18.6,4l1,1.8c0.1-0.1,10.2-5.6,17.1-3.8
				c2.9,0.8,4.8,1.7,6.7,2.6c2.9,1.4,5.4,2.5,9.8,2.5l0,0c2.8,0,5.2-1.2,7.6-2.5c3.1-1.6,6.5-3.4,11.7-3.2c5,0.2,7.2,1.4,9.5,2.5
				c2,1,4.1,2.1,7.8,2.3c3.3,0.2,6.9-0.6,10.4-1.3C-1262.1,147.5-1257.8,146.5-1254.1,147.8z M-1262.2,156.1l0.2-2
				c-3.8-0.4-6,0.3-8.2,1.1c-2.1,0.7-4.1,1.4-7.6,1.1c-3.3-0.2-5-1.1-7-2.1c-2.3-1.2-4.9-2.5-10.3-2.7c-5.8-0.2-9.5,1.7-12.7,3.4
				c-2.3,1.2-4.4,2.3-6.7,2.3l0,0c-3.8,0-5.9-1-8.4-2.3c-2-1-4.3-2.1-7.7-2.8c-7.3-1.4-11.1,1-11.2,1.1l1.1,1.7c0,0,3.2-2,9.7-0.8
				c3.1,0.6,5.2,1.6,7.2,2.6c2.6,1.3,5.1,2.5,9.3,2.5l0,0c2.8,0,5.2-1.2,7.6-2.5c3-1.6,6.5-3.4,11.7-3.2c5,0.2,7.2,1.4,9.5,2.5
				c2,1,4.1,2.1,7.8,2.3c3.9,0.3,6.2-0.5,8.3-1.2C-1267.5,156.4-1265.6,155.8-1262.2,156.1z M-1274.9,193.8l5.5-1.6l-7.3-6
				c2.4-2.3,3.4-5.8,2.5-9.1c-1.4-4.8-6.4-7.6-11.2-6.2l-7.1,2l6.8,23.9l4.5-1.3l-1.8-6.5l1.8-0.5L-1274.9,193.8z M-1298.7,185.9
				c0.7-6.8-4.2-13-11-13.7s-13,4.2-13.7,11s4.2,13,11,13.7C-1305.6,197.7-1299.5,192.7-1298.7,185.9z M-1335.6,191.5l3.3-26.5
				l-3.2-1.8l-20.6,17.1l4.4,2.4l5.6-4.6l7,3.8l-0.9,7.2L-1335.6,191.5z M-1346.3,155.6l-4.4-5.1l-10-0.9l5.3-4.6l-3.1-3.5
				l-18.7,16.3l3.1,3.5l6.5-5.7l-0.6,12.5l4.4,5.1l1-19.1L-1346.3,155.6z"/>
		</g>
	</g>
	<path class="st1" d="M-1303.4,185.4c-0.5,4.2-4.3,7.3-8.5,6.9c-4.2-0.5-7.3-4.3-6.9-8.5c0.5-4.2,4.3-7.3,8.5-6.9
		C-1306,177.4-1302.9,181.2-1303.4,185.4z"/>
	<path class="st1" d="M-1281.7,183.9l-2.6,0.7l-2.4-8.4l2.6-0.7c2.3-0.7,4.7,0.7,5.4,3C-1278.1,180.8-1279.4,183.3-1281.7,183.9z"/>
	<path class="st1" d="M-1356.1,62.2c-2.8,3.3-7.6,3.7-10.9,0.9s-3.7-7.6-0.9-10.9c2.8-3.3,7.6-3.7,10.9-0.9
		C-1353.7,54-1353.3,58.9-1356.1,62.2z"/>
	<polygon class="st1" points="-1337.8,171.2 -1338.6,176.9 -1342.3,174.9 	"/>
	<path class="st1" d="M-1224.8,120.7c0,1.2-0.2,1.8-0.4,2c-0.1,0.2-0.2,0.2-0.4,0.2c-0.1,0-0.2,0-0.4-0.2c-0.2-0.2-0.4-0.7-0.4-2
		s0.2-1.8,0.4-2c0.1-0.2,0.2-0.2,0.4-0.2c0.1,0,0.2,0,0.4,0.2C-1225,119-1224.8,119.5-1224.8,120.7z"/>
	<path class="st1" d="M-1212.2,120.7c0,1.2-0.2,1.8-0.4,2c-0.1,0.2-0.2,0.2-0.4,0.2c-0.1,0-0.2,0-0.4-0.2c-0.2-0.2-0.4-0.7-0.4-2
		s0.2-1.8,0.4-2c0.1-0.2,0.2-0.2,0.4-0.2c0.1,0,0.2,0,0.4,0.2C-1212.4,119-1212.2,119.5-1212.2,120.7z"/>
</g>
<g id="Layer_6">
</g>
<g id="Layer_4" class="st0">
	
		<ellipse transform="matrix(0.7071 -0.7071 0.7071 0.7071 -455.0918 -889.7006)" class="st2" cx="-1301.5" cy="104.5" rx="99.2" ry="99.2"/>
</g>
<g id="Text">
	<g>
		<g>
			<g>
				<g>
					<defs>
						<rect id="SVGID_1_" x="-3.5" y="-50.8" width="219.7" height="310.7"/>
					</defs>
					<clipPath id="SVGID_00000128480714633470571680000010293232490029490867_">
						<use xlink:href="#SVGID_1_"  style="overflow:visible;"/>
					</clipPath>
					<g style="clip-path:url(#SVGID_00000128480714633470571680000010293232490029490867_);">
						<g>
							<defs>
								<rect id="SVGID_00000073719311287296080590000010510191969227261614_" x="-3.5" y="-50.8" width="219.7" height="310.7"/>
							</defs>
							<clipPath id="SVGID_00000023969030976646489190000006845787454935014536_">
								<use xlink:href="#SVGID_00000073719311287296080590000010510191969227261614_"  style="overflow:visible;"/>
							</clipPath>
							<path style="clip-path:url(#SVGID_00000023969030976646489190000006845787454935014536_);fill:#FF1922;" d="M168.4,23.3
								c-3.8-4-5.4-5.1-7-6.3c-0.3-0.2-0.6-0.4-0.9-0.6c-1.6-1.1-3-2.1-4.5-2.8c-0.3-0.2-0.6-0.3-1-0.5c-0.3-0.1-0.6-0.3-1-0.4
								c-0.2-0.1-0.4-0.1-0.6-0.2c-1.9-0.6-4.4-0.7-6.2-0.7c-1,0-2.1,0-3,0.1h-0.7c-0.1,0-0.2,0-0.3,0c-3.3,0.3-7,0.6-10.6,2.3
								c-5.7,2.7-8.1,5-10.9,8.5c-2.3,2.9-4.1,8.3-5.9,13.6c-1.3,3.9-2.7,7.9-3.7,9.1c-0.8,0.9-2.5,2.2-4.4,3.6
								c-4.6,3.5-10.4,7.8-12.2,12.5c-2.9,7.5-2.4,14,1.3,18.4c2.1,2.5,3.6,3.4,5.7,4.3c0.4,0.7,1,3.2,0,5.6
								c-0.9,2.3-3.1,5.3-4.9,7.8c-0.8,1.1-1.6,2.2-2.2,3.1c-0.5,0.8-1.5,1.7-2.5,2.6l0,0c-0.4,0.3-0.7,0.6-1.1,1
								c-0.5,0.4-1,0.8-1.4,1.2c0,0,0,0.1-0.1,0.1c-1.2,1.1-2.4,2.2-3.1,3.3l0,0c-0.4,0.7-0.7,1.4-0.8,2.1c0,0.3-0.4,1.2-0.8,2.2
								l0,0c-0.1,0.3-0.2,0.5-0.3,0.8c-2,0.5-6.9,2.4-9.5,8.3c0,0.1-0.1,0.2-0.1,0.2c-2,0.2-7.3,1.7-11.4,11.8
								c-4.1,10-1,26.5,0.3,33.6c0.2,1.2,0.4,2.1,0.4,2.6c0.4,3.1-0.1,8.5-1.9,12.8c-0.3,0.6-1.4,2-2.3,3.1
								c-1.1,1.4-2.3,2.7-2.9,3.9c-0.9,1.6-0.6,4.9,1,6.6c1.2,1.2,3.7,1.7,5.4,1.1c0.8-0.3,1.3-0.8,1.7-1.2l0.2-0.2
								c0.3,0.1,0.7,0.2,1.1,0.3c1.5,0.4,3.3,0.9,4.8,0.8c1.5-0.1,5.3-0.7,7.7-4.4c1.5-2.1,7.5-6.4,10.5-8.5l0.9-0.6
								c0.8-0.5,1.4-1,1.9-1.3c1,2.8,2.9,7.8,4.1,9.5c1.7,2.3,4.8,3.9,6.2,4.6c0.1,0,6.7,3.2,15.4,3.2c8.1,0,15-2.7,20.6-8
								c3.9-3.7,6.8-7.8,8.9-12c2.4-4.9,3.8-9.7,4.4-13.8c0.6-4.2,0.5-7.6-0.1-9.5c-1.4-5-4.8-12.7-7.1-15.5
								c-1.5-1.7-1.8-5.4-2.1-8.1c-0.1-0.7-0.1-1.3-0.2-1.9c-0.1-0.5-0.2-1.3-0.4-2.3c-0.4-2.8-1.2-7.8-1.5-11.7
								c-0.2-1.8-0.2-3.4-0.1-4.5c0-0.3,0.1-0.7,0.1-1.1c0.4-4.6,0.6-13.3-5.4-18.9c-5.5-5.2-9.7-7.5-10.3-7.8
								c-2.7-1.8-6.1-5-6.7-6.9c-0.1-0.2-0.1-0.5-0.1-0.6c0-0.2,0.1-0.4,0.1-0.5V77c0.2-0.9,0.7-1.9,1.3-2.9l0,0
								c1.8-3.1,4.8-6.2,7.2-5.8l1,0.2c3,0.5,6.7,1.2,10,1.2c0.8,0,1.6-0.1,2.3-0.1c0.2,0,0.5-0.1,0.7-0.1c0.3,0,0.6-0.1,0.8-0.2
								l0,0c0.5-0.1,1-0.3,1.4-0.5c3.9-1.8,9.2-6.4,11.5-9.1c0,0,0-0.1,0.1-0.1c0.7-0.8,1.4-1.8,2.1-2.8c0.2-0.3,0.4-0.5,0.5-0.8
								c1.3-1.9,2.7-3.9,4-5c4.1-3.4,5.9-5.4,7.6-11.4C170.5,35.6,172.7,27.9,168.4,23.3 M166.3,38.8c-1.6,5.4-3.1,6.9-6.6,9.8
								c-1.6,1.3-3.1,3.5-4.5,5.6c-0.9,1.3-1.7,2.4-2.5,3.4c-2,2.4-6.9,6.7-10.4,8.3c-0.9,0.4-2.3,0.6-4,0.6c-3,0-6.6-0.6-9.4-1.1
								l-1-0.2c-0.3,0-0.7-0.1-1-0.1c-5.5,0-10.7,8-11.3,12.2c-0.1,0.5,0,1.1,0.1,1.6c0.9,4.1,6.8,8.2,8.1,9.1l0.1,0.1
								c0,0,2.4,1.3,5.9,4.1c0.1,0.1,0.2,0.1,0.3,0.2c1.1,0.9,2.3,1.9,3.5,3.1c0.8,0.7,1.5,1.6,2,2.4c3.1,5,2.5,11.5,2.2,14.9
								c-0.1,1-0.1,2.4,0,3.9c0.1,1.6,0.3,3.3,0.5,5.2c0.3,2.5,0.7,5.3,1.2,7.9c0.1,1,0.3,1.8,0.3,2.3c0.1,0.4,0.1,0.8,0.2,1.2
								c0,0.2,0,0.4,0,0.5c0.1,1.1,0.2,2.3,0.5,3.5l0,0c0.4,2.3,1,4.7,2.4,6.4c0.3,0.3,0.6,0.8,0.9,1.4l0,0c1.9,3,4.3,8.7,5.5,12.9
								c1.3,4.6-0.4,21-12.3,32.1c-4.9,4.7-11.1,7.1-18.4,7.1c-4.5,0-8.4-0.9-10.9-1.7c-1.9-0.6-3-1.1-3-1.1c-1.3-0.6-3.8-2-5.1-3.6
								c-1-1.4-3.2-7.2-4.3-10.6l-0.2-0.5l-0.4-1.3l-1.6,0.8c-0.1,0.1-0.8,0.4-2.4,1.6l0,0c-0.4,0.3-0.9,0.6-1.4,1l-0.9,0.6
								c-4.6,3.3-9.6,6.9-11.2,9.3c-1.7,2.5-4.3,2.9-5.3,3h-0.2c-0.7,0-1.7-0.2-2.6-0.4l0,0c-0.3-0.1-0.6-0.2-0.9-0.2
								c-1.1-0.3-1.7-0.4-2.2-0.4l-0.4,0.1c-0.2,0-0.4,0.1-0.6,0.2c-0.4,0.2-0.8,0.5-1.1,0.8c-0.2,0.2-0.5,0.5-0.7,0.6
								c-0.6,0.2-1.7-0.1-2-0.3c-0.6-0.6-0.7-2.3-0.5-2.7c0.5-0.9,1.6-2.2,2.6-3.4c1.3-1.5,2.4-2.9,2.8-3.9
								c2.1-4.9,2.6-10.9,2.2-14.5c-0.1-0.5-0.3-1.5-0.5-2.8c-1.3-6.8-4.2-22.6-0.5-31.8c2.4-5.8,5-8.2,6.8-9.1c0,0.1,0,0.1,0,0.2
								l0,0c0,0.2,0.1,0.4,0.3,0.6l0.5,0.7h0.8c0.9,0,1.2-0.2,2.1-2.1l0,0c0.3-0.6,0.6-1.3,1-2.2c1.1-2.5,2.7-4.1,4.2-5.1l0,0
								c1.9-1.2,3.6-1.5,3.7-1.5l0.9-0.1l0.4-0.8c1.6-3.8,1.7-4.4,1.7-4.6c0.1-1.1,2.5-3.2,4.3-4.7c1.7-1.5,3.4-2.9,4.3-4.3
								c0.4-0.6,1-1.4,1.6-2.3c0.2-0.2,0.3-0.5,0.5-0.7c2-2.7,4.3-5.9,5.3-8.5c0.4-0.9,0.6-1.9,0.6-2.9c0-0.3,0.1-0.6,0.1-1
								c0-0.3,0-0.6,0-0.9c-0.1-1.6-0.5-3-1.1-3.9c-0.3-0.5-0.7-0.9-1.1-1c-0.2-0.1-0.3-0.1-0.5-0.2c0,0-0.1,0-0.2-0.1
								c-0.8-0.4-1.5-0.7-2.1-1.3c-0.6-0.5-1.1-1.1-1.8-1.9c-1.5-1.7-2.1-3.7-2.3-5.7v-0.1c-0.3-3.5,0.7-7,1.6-9.3
								c1.5-3.8,7-8,11.1-11c2.2-1.6,3.9-2.9,4.8-4c1.4-1.6,2.6-4.9,4.4-10.2c1.6-4.8,3.4-10.2,5.4-12.6c2.5-3.2,4.6-5.1,9.8-7.6
								c3.2-1.5,6.7-1.8,9.8-2l0.7-0.1c0.9-0.1,1.8-0.1,2.8-0.1c2.1,0,4,0.2,5.2,0.6c1.8,0.6,3.8,1.7,6,3.3c0.3,0.2,0.7,0.5,1,0.7
								c1.5,1.1,2.9,2,6.5,5.8C168.8,28.4,167.8,33.6,166.3,38.8"/>
						</g>
						<g>
							<defs>
								<rect id="SVGID_00000160899804880064909700000018222135535292726689_" x="-3.5" y="-50.8" width="219.7" height="310.7"/>
							</defs>
							<clipPath id="SVGID_00000071533280832155615980000016151882199802327447_">
								<use xlink:href="#SVGID_00000160899804880064909700000018222135535292726689_"  style="overflow:visible;"/>
							</clipPath>
							<path style="clip-path:url(#SVGID_00000071533280832155615980000016151882199802327447_);fill:#FF1922;" d="M126,169.8
								c-2.1,0-4.8-0.3-8.5-0.8c-5.3-0.7-12-5.5-17.9-9.7c-1.4-1-2.6-1.9-3.9-2.7c-6.4-4.4-10.5-6.1-15.7-6.5
								c-5.6-0.5-8.3-1.9-9.7-5.1c-1.7-3.9-0.2-9.3,2.3-10.6c1.1-0.8,2-0.8,6.7,0.5c0.4,0.1,0.7,0.2,1.1,0.3c-0.6-1-0.7-2.2-0.3-3.3
								c0.6-1.7,2.1-3,3.6-3.1c2.8-0.2,4,1.3,4.9,2.6c0.4,0.5,0.8,1,1.4,1.4c7.5,5.7,10.9,7.2,19.5,9.6c2.4,0.7,4.9,2.1,6.8,3.3
								c-0.6-6-0.4-15.6,0.6-19.6c0.4-1.5,0.8-4.5,1.2-7.9c1-7.3,2.2-16.4,4.4-20.3c3.6-6.4,10.7-5.4,11-5.4c0.9,0.1,1.5,1,1.4,1.8
								c-0.1,0.9-0.9,1.5-1.8,1.4c-0.2,0-5.3-0.7-7.7,3.8c-1.9,3.4-3.1,12.6-4,19.2c-0.5,3.5-0.9,6.6-1.3,8.3
								c-1.2,4.9-1,18.9,0,21.9l1.9,5.4l-4.4-3.6c0,0-4.9-4-8.9-5.1c-9-2.5-12.8-4.1-20.6-10.1c-0.9-0.7-1.5-1.4-1.9-2
								c-0.9-1.1-1.2-1.4-2.2-1.4c-0.2,0.1-0.6,0.5-0.8,1.1c-0.1,0.4,0.1,0.6,0.2,0.7c1.5,1.3,2.6,2.5,2.5,3.6v0.6l-0.7,0.6
								c-0.7,0.6-1.6,0.9-6.7-0.5c-2.7-0.8-3.7-0.9-4-0.9c-0.1,0.1-0.2,0.1-0.3,0.2c-0.7,0.4-2,3.8-0.8,6.5c0.6,1.4,1.6,2.8,7,3.2
								c5.8,0.5,10.5,2.4,17.3,7c1.2,0.8,2.5,1.8,3.9,2.7c5.3,3.8,12,8.5,16.5,9.1c9.9,1.4,11.2,1.2,14.9-2.2c5-4.4,6-6.6,7.3-15.3
								c1.1-7.1,0.3-10.1,0.2-10.2c-0.2-0.9,0.3-1.7,1.1-2c0.8-0.2,1.7,0.2,2,1.1c0.1,0.4,1,3.8-0.2,11.6
								c-1.4,9.5-2.8,12.2-8.4,17.2C132,168.8,129.9,169.8,126,169.8"/>
						</g>
						<g>
							<defs>
								<rect id="SVGID_00000030475059210806565720000016179262654021930399_" x="-3.5" y="-50.8" width="219.7" height="310.7"/>
							</defs>
							<clipPath id="SVGID_00000083065363624801371920000015301640838850271666_">
								<use xlink:href="#SVGID_00000030475059210806565720000016179262654021930399_"  style="overflow:visible;"/>
							</clipPath>
							<path style="clip-path:url(#SVGID_00000083065363624801371920000015301640838850271666_);fill:#FF1922;" d="M67.8,197.3
								c-2.5-1.3-3.4-3.3-2.6-5.9c0.4-1.5,2-2.8,4-4.4c1.8-1.5,3.9-3.2,5-5c2.1-3.3,2.1-6.1-1.7-20.7c-2.1-7.8-1-14.1-0.9-14.3
								l3.2,0.6c0,0.1-1,5.8,0.9,12.9c3.9,15,4.2,18.7,1.3,23.2c-1.4,2.3-3.7,4.1-5.7,5.8c-1.2,1-2.8,2.3-2.9,2.8
								c-0.3,1.2,0,1.6,1,2.2L67.8,197.3z"/>
						</g>
						<g>
							<defs>
								<rect id="SVGID_00000114066237941574274150000016965182778242406541_" x="-3.5" y="-50.8" width="219.7" height="310.7"/>
							</defs>
							<clipPath id="SVGID_00000000191453006544098220000007214232819844829853_">
								<use xlink:href="#SVGID_00000114066237941574274150000016965182778242406541_"  style="overflow:visible;"/>
							</clipPath>
							<path style="clip-path:url(#SVGID_00000000191453006544098220000007214232819844829853_);fill:#FF1922;" d="M72.7,134.4
								c-0.1-3.6,2-9.2,2.1-9.4l3,1.1c-0.6,1.5-2,5.8-1.9,8.2L72.7,134.4z"/>
						</g>
						<g>
							<defs>
								<rect id="SVGID_00000004530884719037615430000015113918099874468020_" x="-3.5" y="-50.8" width="219.7" height="310.7"/>
							</defs>
							<clipPath id="SVGID_00000005236020410589294250000004193282801626579617_">
								<use xlink:href="#SVGID_00000004530884719037615430000015113918099874468020_"  style="overflow:visible;"/>
							</clipPath>
							<path style="clip-path:url(#SVGID_00000005236020410589294250000004193282801626579617_);fill:#FF1922;" d="M92.5,183.4
								l-1.8-2.7l0.9,1.3l-0.9-1.3c0.1-0.1,2-1.5,1.9-4.8c-0.1-2-0.6-4.6-1.1-7.2c-0.6-2.9-1-5.5-0.9-7.1v-0.9
								c0.2-4,0.4-7.1,1.7-8.5l2.4,2.1c-0.6,0.8-0.8,5-0.9,6.6v0.9c-0.1,1.2,0.4,3.8,0.9,6.3c0.5,2.7,1,5.5,1.1,7.7
								C96,180.9,92.7,183.3,92.5,183.4"/>
						</g>
						<g>
							<defs>
								<rect id="SVGID_00000168807707925038680270000005260465174889159298_" x="-3.5" y="-50.8" width="219.7" height="310.7"/>
							</defs>
							<clipPath id="SVGID_00000105416886037565140490000011241633171089793439_">
								<use xlink:href="#SVGID_00000168807707925038680270000005260465174889159298_"  style="overflow:visible;"/>
							</clipPath>
							<path style="clip-path:url(#SVGID_00000105416886037565140490000011241633171089793439_);fill:#FF1922;" d="M105.8,131.9
								c0.6,1.5,1.6,3.1,2.8,10.8L105.8,131.9z"/>
						</g>
						<g>
							<defs>
								<rect id="SVGID_00000145056011134359646380000013710552871667087746_" x="-3.5" y="-50.8" width="219.7" height="310.7"/>
							</defs>
							<clipPath id="SVGID_00000134959446417035523850000010322934190248263339_">
								<use xlink:href="#SVGID_00000145056011134359646380000013710552871667087746_"  style="overflow:visible;"/>
							</clipPath>
							<path style="clip-path:url(#SVGID_00000134959446417035523850000010322934190248263339_);fill:#FF1922;" d="M107,143
								c-1-6.3-1.8-8.3-2.4-9.7c-0.1-0.3-0.2-0.6-0.3-0.9l3-1.1c0.1,0.2,0.2,0.5,0.3,0.7c0.6,1.5,1.6,3.7,2.6,10.4L107,143z"/>
						</g>
						<g>
							<defs>
								<rect id="SVGID_00000133498956230549001820000009753714916681971591_" x="-3.5" y="-50.8" width="219.7" height="310.7"/>
							</defs>
							<clipPath id="SVGID_00000164483107871610423280000006897832371682275750_">
								<use xlink:href="#SVGID_00000133498956230549001820000009753714916681971591_"  style="overflow:visible;"/>
							</clipPath>
							<path style="clip-path:url(#SVGID_00000164483107871610423280000006897832371682275750_);fill:#FF1922;" d="M177.2,79.9
								c-0.3,0.2-22.3,17.5-36.1,37.8c-1,1.4-1.9,2.9-2.8,4.3c-1.6,2.7-3.1,5.4-4.3,8.1l-2.9-1.3c1.8-4.1,4.1-8.1,6.7-12
								c1-1.6,2.1-3.1,3.3-4.7c13.9-18.9,33.1-33.9,34.2-34.7L177.2,79.9z"/>
						</g>
						<g>
							<defs>
								<rect id="SVGID_00000028313180847036865740000003852231362750761119_" x="-3.5" y="-50.8" width="219.7" height="310.7"/>
							</defs>
							<clipPath id="SVGID_00000124840584900617874100000012789750759298188706_">
								<use xlink:href="#SVGID_00000028313180847036865740000003852231362750761119_"  style="overflow:visible;"/>
							</clipPath>
							<path style="clip-path:url(#SVGID_00000124840584900617874100000012789750759298188706_);fill:#FF1922;" d="M173.2,128.6
								c0,0-6.1,5.2-17.6,25.4l-2.8-1.6c11.9-20.9,18.1-26.1,18.3-26.3L173.2,128.6z"/>
						</g>
						<g>
							<defs>
								<rect id="SVGID_00000113316961948260036880000007434506381873405070_" x="-3.5" y="-50.8" width="219.7" height="310.7"/>
							</defs>
							<clipPath id="SVGID_00000100358625631900825050000017197006998252434565_">
								<use xlink:href="#SVGID_00000113316961948260036880000007434506381873405070_"  style="overflow:visible;"/>
							</clipPath>
							<path style="clip-path:url(#SVGID_00000100358625631900825050000017197006998252434565_);fill:#FF1922;" d="M136.5,99.3
								c-0.1-0.2-0.4-0.7-0.9-1.3c-0.8-1-2-2.2-3.3-2.3c-1.2-0.1-2.7,0.3-4.1,0.8l0,0c-2.4,1-4.6,2.8-5.5,4.6
								c-1.4,2.9-1.2,7.6-1.6,11.5s-1.6,9.7-2.6,14.3c-0.3,1.2-1,2.1-2,2.9c-2.3,1.8-6.1,2.6-8.8,2.9c-0.6,0.1-1.2,0.1-1.7,0.2h-0.1
								c-0.8,0.1-1.3,0.1-1.3,0.1s-0.1-0.2-0.2-0.6c-0.4-1.1-1.4-3.4-2.2-5.1c-1.8-3.9-2.9-4.8-4.3-6.4c-3.3-3.9-11.1-3.8-14.8-2.1
								l0,0c-0.6,0.3-1.1,0.6-1.5,1c-3,3-0.3-0.2,3.6-4.9c0.2-0.3,0.4-0.8,0.5-1.4l0,0c0.3-1.3,0.6-3.1,1.6-4.3l0,0
								c1.2-1.5,1.9-2,2.4-2.7c0.2-0.2,0.4-0.4,0.6-0.7c0,0,0.1,0,0.1-0.1c0.8-0.7,1.6-1.5,2.6-2.2l0,0c3.5-2.8,7.6-5.2,8-5.4
								c-0.5,0.9-0.8,1.6-1.1,2.2c-1.2,2.3-1.3,2.7-2.1,4.3c-1.4,2.7,1.8,4.9,5.2,4.9c2.7,0,11.8-1.1,17.1-9.1
								c1.7-2.5,3.3-4.3,4.9-5.6c0.2-0.1,0.4-0.3,0.5-0.4l0.1-0.1c1.5-1.1,2.9-1.8,4.2-2.1c3.1-0.8,5.1,0.5,5.1,0.5L136.5,99.3z"/>
						</g>
						<g>
							<defs>
								<rect id="SVGID_00000145762710665627804740000017236271571806074772_" x="-3.5" y="-50.8" width="219.7" height="310.7"/>
							</defs>
							<clipPath id="SVGID_00000040554675267837741690000008860280590881516727_">
								<use xlink:href="#SVGID_00000145762710665627804740000017236271571806074772_"  style="overflow:visible;"/>
							</clipPath>
							<path style="clip-path:url(#SVGID_00000040554675267837741690000008860280590881516727_);fill:#FF1922;" d="M101.2,81.6
								c0,0,3.1,1.4,2.5,3.7c-0.6,2.3-0.2,3.1,2,1.4c2.2-1.6,3.7-4.1,3.5-6.1s-1.2-1.2-1.2-1.2s-2.1,3.4-5.7,1.8
								C98.5,79.4,101.2,81.6,101.2,81.6"/>
						</g>
						<g>
							<defs>
								<rect id="SVGID_00000083072703085553354350000013621435283160499638_" x="-3.5" y="-50.8" width="219.7" height="310.7"/>
							</defs>
							<clipPath id="SVGID_00000078045557706632060040000007295627806928613811_">
								<use xlink:href="#SVGID_00000083072703085553354350000013621435283160499638_"  style="overflow:visible;"/>
							</clipPath>
							<path style="clip-path:url(#SVGID_00000078045557706632060040000007295627806928613811_);fill:#FF1922;" d="M104.4,89.2
								c-0.4,0-0.5-0.4-0.8-0.8s-0.4-1.8,0-3.5c0.3-1.1-2-2-3.1-2.6l-0.2-0.1c-1.1-0.8-1.4-1.4-1.2-1.9l0.2-0.5l0.7-0.1
								c0.3,0,0.7,0.1,2.1,0.7c0.6,0.2,1.1,0.4,1.6,0.4c2,0,3.1-1.8,3.1-1.8l0.2-0.2c0.1-0.1,0.5-0.3,0.9-0.3c0.5,0,1.4,0.3,1.6,2.1
								c0.2,2.3-4.2,11-4.2,11S105,89.2,104.4,89.2 M103.3,82.4c0.7,0.8,1.3,1.8,0.9,3.2c-0.2,0.6-0.2,1-0.2,1.2
								c0.2-0.1,0.5-0.3,1-0.6c2-1.5,3.3-3.7,3.1-5.4c0-0.2,0-0.3-0.1-0.4c-0.6,0.7-2,2.2-4.2,2.2C103.7,82.4,103.5,82.4,103.3,82.4
								"/>
						</g>
						<g>
							<defs>
								<rect id="SVGID_00000094596520185834672040000007543446297104410036_" x="-3.5" y="-50.8" width="219.7" height="310.7"/>
							</defs>
							<clipPath id="SVGID_00000152248111868352227790000003681340037076683680_">
								<use xlink:href="#SVGID_00000094596520185834672040000007543446297104410036_"  style="overflow:visible;"/>
							</clipPath>
							<path style="clip-path:url(#SVGID_00000152248111868352227790000003681340037076683680_);fill:#FF1922;" d="M172.7,35.1
								c-0.6,6.5-5.1,12.2-7.4,14.7c-1.8,2-5.5,4.4-8.1,7.1c-0.7,0.7-1.3,1.5-1.8,2.2c-0.1,0.2-0.3,0.5-0.4,0.7
								c-2,3.1-3.2,4-6.7,6.9c-1.6,1.3-3.8,2.2-6.2,2.7l0,0c-0.3,0-0.5,0.1-0.8,0.2c-0.2,0-0.5,0.1-0.7,0.1
								c-2.6,0.4-5.3,0.5-7.5,0.4c-4.7-0.2-6.4-0.2-10.7,2.3c-1,0.6-1.7,1.2-2.3,1.9l0,0c-0.8,1-1.1,2.1-1.3,2.9v0.1
								c-0.1,0.5-0.1,0.9-0.1,1.2c0,0.2,0,0.3,0,0.3l-2.5,1.8c0,0-0.2-0.5-0.6-1.5c-0.5-1.2-1.3-3-2.4-5.2c-1.8-3.9-3.3-6.8-5.7-8
								c-2.5-1.2-3.5-1.4-7,0.1c-3.1,1.4-3.5,4.3-3.4,6.2v0.1c0,1,0.2,1.6,0.2,1.6l-1.8,3l0.2-11.1c0.2-11.1,12.9-15.7,16.2-19.4
								c3.3-3.8,7.3-17.5,11.3-22.4c4.1-4.9,11-9.4,12.8-9.8c1.8-0.4,3.9-1.3,7.3-2c0.6-0.1,1.2-0.2,1.9-0.3c3-0.4,5.7,0,8.3,0.9
								c0.2,0.1,0.4,0.1,0.6,0.2c0.3,0.1,0.6,0.2,1,0.4c0.3,0.1,0.7,0.3,1,0.5c0.4,0.2,0.8,0.4,1.2,0.6c3.5,1.8,4.5,2.9,9.2,6.4
								C171.2,24.1,173.3,28.5,172.7,35.1"/>
						</g>
						<g>
							<defs>
								<rect id="SVGID_00000039847658750469431370000012511007080963514253_" x="-3.5" y="-50.8" width="219.7" height="310.7"/>
							</defs>
							<clipPath id="SVGID_00000125596580602582637110000011159864170422617014_">
								<use xlink:href="#SVGID_00000039847658750469431370000012511007080963514253_"  style="overflow:visible;"/>
							</clipPath>
							<path style="clip-path:url(#SVGID_00000125596580602582637110000011159864170422617014_);fill:#FF1922;" d="M152.6,166.6
								c0,1.6-0.1,3.2-0.4,4.8c-0.6,3-2,6.1-4,9.1c-6.8,10.4-19.9,19.6-26.9,19.8c-9,0.2-14.3-1.6-16.7-3.1
								c-2.5-1.4-3.8-4.9-3.8-4.9s4,2.8,7.1,3.3c0.6,0.1,1.3,0.1,1.8-0.1c4.5-1.4,7.6-4.6,8.1-11.6c0.4-5.9,0.5-12.6-0.3-14.3
								c-0.2-0.4-0.4-0.6-0.6-0.7l0,0c-0.2-0.1-0.4-0.2-0.7-0.3c-3.8-2-4.3-1.6-8.3-4c-1.7-1-3.2-2-4.7-2.8c0,0,0,0-0.1,0
								c-1.9-1-3.7-1.7-5.7-1.6c-1.5,0.1-2.7,0-3.5-0.1c-1.1-0.2-1.6-0.5-1.6-0.5s-0.4-3.4-0.1-5.3c0.1-0.5,0.2-1,0.4-1.1
								c0.1-0.1,0.3-0.2,0.4-0.2c0.7-0.5,1.3-0.7,1.3-0.7s7.8,5.4,10.9,7.7c0.8,0.6,2.6,1.5,4.8,2.4l0,0c5.7,2.4,14.7,5,19.3,3.9
								l0,0c0.4-0.1,0.8-0.2,1.2-0.4c0.6-0.3,0.8-0.6,1.2-0.9l0,0c0.2-0.2,0.5-0.5,0.9-0.9c1.7-1.4,5.6-8.7,6.5-13.1
								c0.9-4.3,1-13.1,1-17.5c0-1.6,0-2.6,0-2.6l2.2,5.4l1.8,4.4l0,0l0.1,0.4C144.2,141,152.5,154.2,152.6,166.6"/>
						</g>
					</g>
				</g>
				<g>
					<defs>
						<rect id="SVGID_00000150074033788791762750000014005357781279299457_" x="-3.5" y="-50.8" width="219.7" height="310.7"/>
					</defs>
					<clipPath id="SVGID_00000021811199458655230600000017489691227542090114_">
						<use xlink:href="#SVGID_00000150074033788791762750000014005357781279299457_"  style="overflow:visible;"/>
					</clipPath>
					<g style="clip-path:url(#SVGID_00000021811199458655230600000017489691227542090114_);">
						<text transform="matrix(0.38 -0.925 0.925 0.38 117.4784 40.6428)" class="st19 st20 st21"> </text>
					</g>
				</g>
				<g>
					<defs>
						<rect id="SVGID_00000082339866993819330540000003923663932616048557_" x="-3.5" y="-50.8" width="219.7" height="310.7"/>
					</defs>
					<clipPath id="SVGID_00000056423314779753228050000006349923958127422650_">
						<use xlink:href="#SVGID_00000082339866993819330540000003923663932616048557_"  style="overflow:visible;"/>
					</clipPath>
					<g style="clip-path:url(#SVGID_00000056423314779753228050000006349923958127422650_);">
						<text transform="matrix(0.373 -0.9278 0.9278 0.373 117.7694 39.9616)" class="st19 st20 st21"> </text>
					</g>
				</g>
				<g>
					<defs>
						<rect id="SVGID_00000053539332847644785420000003937310881757990017_" x="-3.5" y="-50.8" width="219.7" height="310.7"/>
					</defs>
					<clipPath id="SVGID_00000155120880628442343470000007613248945692765071_">
						<use xlink:href="#SVGID_00000053539332847644785420000003937310881757990017_"  style="overflow:visible;"/>
					</clipPath>
					<g style="clip-path:url(#SVGID_00000155120880628442343470000007613248945692765071_);">
						<text transform="matrix(0.3677 -0.93 0.93 0.3677 118.0975 39.1912)" class="st19 st20 st24"> </text>
					</g>
				</g>
				<g>
					<defs>
						<rect id="SVGID_00000044160597429979605640000016449834615255583920_" x="-3.5" y="-50.8" width="219.7" height="310.7"/>
					</defs>
					<clipPath id="SVGID_00000002368227118192063140000009573098300938577282_">
						<use xlink:href="#SVGID_00000044160597429979605640000016449834615255583920_"  style="overflow:visible;"/>
					</clipPath>
					<g style="clip-path:url(#SVGID_00000002368227118192063140000009573098300938577282_);">
						<text transform="matrix(0.3617 -0.9323 0.9323 0.3617 118.3596 38.4403)" class="st19 st20 st21">K</text>
					</g>
				</g>
				<g>
					<defs>
						<rect id="SVGID_00000139973132338335976430000010049561773631372211_" x="-3.5" y="-50.8" width="219.7" height="310.7"/>
					</defs>
					<clipPath id="SVGID_00000007423957271626649150000000045728154685079728_">
						<use xlink:href="#SVGID_00000139973132338335976430000010049561773631372211_"  style="overflow:visible;"/>
					</clipPath>
					<g style="clip-path:url(#SVGID_00000007423957271626649150000000045728154685079728_);">
						<text transform="matrix(0.3599 -0.933 0.933 0.3599 119.1376 36.3591)" class="st19 st20 st21">O</text>
					</g>
				</g>
				<g>
					<defs>
						<rect id="SVGID_00000062161223760262853810000006258952375636825740_" x="-3.5" y="-50.8" width="219.7" height="310.7"/>
					</defs>
					<clipPath id="SVGID_00000090995624473390825760000010101551898751621299_">
						<use xlink:href="#SVGID_00000062161223760262853810000006258952375636825740_"  style="overflow:visible;"/>
					</clipPath>
					<g style="clip-path:url(#SVGID_00000090995624473390825760000010101551898751621299_);">
						<text transform="matrix(0.3652 -0.9309 0.9309 0.3652 119.9034 34.2864)" class="st19 st20 st21">L</text>
					</g>
				</g>
				<g>
					<defs>
						<rect id="SVGID_00000020390111298470042720000010306917996893818528_" x="-3.5" y="-50.8" width="219.7" height="310.7"/>
					</defs>
					<clipPath id="SVGID_00000168805048575167166260000011446718466645790874_">
						<use xlink:href="#SVGID_00000020390111298470042720000010306917996893818528_"  style="overflow:visible;"/>
					</clipPath>
					<g style="clip-path:url(#SVGID_00000168805048575167166260000011446718466645790874_);">
						<text transform="matrix(0.3755 -0.9268 0.9268 0.3755 120.5697 32.5453)" class="st19 st20 st21">L</text>
					</g>
				</g>
				<g>
					<defs>
						<rect id="SVGID_00000021119716968458305230000001616058309758870425_" x="-3.5" y="-50.8" width="219.7" height="310.7"/>
					</defs>
					<clipPath id="SVGID_00000160907017317510149240000008333466113376158084_">
						<use xlink:href="#SVGID_00000021119716968458305230000001616058309758870425_"  style="overflow:visible;"/>
					</clipPath>
					<g style="clip-path:url(#SVGID_00000160907017317510149240000008333466113376158084_);">
						<text transform="matrix(0.3929 -0.9196 0.9196 0.3929 121.3009 30.9809)" class="st19 st20 st21">E</text>
					</g>
				</g>
				<g>
					<defs>
						<rect id="SVGID_00000135667879950202473260000010614887649980635805_" x="-3.5" y="-50.8" width="219.7" height="310.7"/>
					</defs>
					<clipPath id="SVGID_00000154411385839124366660000003947361633291152515_">
						<use xlink:href="#SVGID_00000135667879950202473260000010614887649980635805_"  style="overflow:visible;"/>
					</clipPath>
					<g style="clip-path:url(#SVGID_00000154411385839124366660000003947361633291152515_);">
						<text transform="matrix(0.4222 -0.9065 0.9065 0.4222 121.9995 29.1493)" class="st19 st20 st21">K</text>
					</g>
				</g>
				<g>
					<defs>
						<rect id="SVGID_00000038393528855173617620000015039376799478135471_" x="-3.5" y="-50.8" width="219.7" height="310.7"/>
					</defs>
					<clipPath id="SVGID_00000078741683503949028820000004740716339862522298_">
						<use xlink:href="#SVGID_00000038393528855173617620000015039376799478135471_"  style="overflow:visible;"/>
					</clipPath>
					<g style="clip-path:url(#SVGID_00000078741683503949028820000004740716339862522298_);">
						<text transform="matrix(0.4658 -0.8849 0.8849 0.4658 122.9659 27.2964)" class="st19 st20 st21">T</text>
					</g>
				</g>
				<g>
					<defs>
						<rect id="SVGID_00000090982793395109178650000017699812508180916391_" x="-3.5" y="-50.8" width="219.7" height="310.7"/>
					</defs>
					<clipPath id="SVGID_00000137127775761647455790000000465147826255091863_">
						<use xlink:href="#SVGID_00000090982793395109178650000017699812508180916391_"  style="overflow:visible;"/>
					</clipPath>
					<g style="clip-path:url(#SVGID_00000137127775761647455790000000465147826255091863_);">
						<text transform="matrix(0.5086 -0.861 0.861 0.5086 123.7436 25.6969)" class="st19 st20 st21">I</text>
					</g>
				</g>
				<g>
					<defs>
						<rect id="SVGID_00000002378241186727119830000012420752148092943547_" x="-3.5" y="-50.8" width="219.7" height="310.7"/>
					</defs>
					<clipPath id="SVGID_00000116915113438511955790000002964151076203464071_">
						<use xlink:href="#SVGID_00000002378241186727119830000012420752148092943547_"  style="overflow:visible;"/>
					</clipPath>
					<g style="clip-path:url(#SVGID_00000116915113438511955790000002964151076203464071_);">
						<text transform="matrix(0.5736 -0.8191 0.8191 0.5736 124.1125 24.9523)" class="st19 st20 st21">V</text>
					</g>
				</g>
				<g>
					<defs>
						<rect id="SVGID_00000037654094528287588610000009682869005578828965_" x="-3.5" y="-50.8" width="219.7" height="310.7"/>
					</defs>
					<clipPath id="SVGID_00000133526546301961896650000006512815534369189510_">
						<use xlink:href="#SVGID_00000037654094528287588610000009682869005578828965_"  style="overflow:visible;"/>
					</clipPath>
					<g style="clip-path:url(#SVGID_00000133526546301961896650000006512815534369189510_);">
						<text transform="matrix(0.6574 -0.7536 0.7536 0.6574 125.2734 23.4405)" class="st19 st20 st35"> </text>
					</g>
				</g>
				<g>
					<defs>
						<rect id="SVGID_00000044869795905862765840000009968696385251457936_" x="-3.5" y="-50.8" width="219.7" height="310.7"/>
					</defs>
					<clipPath id="SVGID_00000160908554906202853640000001461220571051628694_">
						<use xlink:href="#SVGID_00000044869795905862765840000009968696385251457936_"  style="overflow:visible;"/>
					</clipPath>
					<g style="clip-path:url(#SVGID_00000160908554906202853640000001461220571051628694_);">
						<text transform="matrix(0.7168 -0.6972 0.6972 0.7168 125.7211 22.7744)" class="st19 st20 st37">K</text>
					</g>
				</g>
				<g>
					<defs>
						<rect id="SVGID_00000062194381509721024550000000134246112182079669_" x="-3.5" y="-50.8" width="219.7" height="310.7"/>
					</defs>
					<clipPath id="SVGID_00000110435741710556113000000011030613693316326800_">
						<use xlink:href="#SVGID_00000062194381509721024550000000134246112182079669_"  style="overflow:visible;"/>
					</clipPath>
					<g style="clip-path:url(#SVGID_00000110435741710556113000000011030613693316326800_);">
						<text transform="matrix(0.7854 -0.619 0.619 0.7854 127.3076 21.3828)" class="st19 st20 st21">A</text>
					</g>
				</g>
				<g>
					<defs>
						<rect id="SVGID_00000037689713949220438660000017963306440452450737_" x="-3.5" y="-50.8" width="219.7" height="310.7"/>
					</defs>
					<clipPath id="SVGID_00000036942063384904897060000003167874749573595025_">
						<use xlink:href="#SVGID_00000037689713949220438660000017963306440452450737_"  style="overflow:visible;"/>
					</clipPath>
					<g style="clip-path:url(#SVGID_00000036942063384904897060000003167874749573595025_);">
						<text transform="matrix(0.8368 -0.5475 0.5475 0.8368 128.9212 20.1223)" class="st19 st20 st21">O</text>
					</g>
				</g>
				<g>
					<defs>
						<rect id="SVGID_00000055701982246592947410000006189053380531195304_" x="-3.5" y="-50.8" width="219.7" height="310.7"/>
					</defs>
					<clipPath id="SVGID_00000134931660369654299300000002982378707742242433_">
						<use xlink:href="#SVGID_00000055701982246592947410000006189053380531195304_"  style="overflow:visible;"/>
					</clipPath>
					<g style="clip-path:url(#SVGID_00000134931660369654299300000002982378707742242433_);">
						<text transform="matrix(0.8718 -0.4899 0.4899 0.8718 130.7271 18.8294)" class="st19 st20 st21">R</text>
					</g>
				</g>
				<g>
					<defs>
						<rect id="SVGID_00000007421316990780636950000004772458068508469421_" x="-3.5" y="-50.8" width="219.7" height="310.7"/>
					</defs>
					<clipPath id="SVGID_00000109029803923933173450000005168152069615090364_">
						<use xlink:href="#SVGID_00000007421316990780636950000004772458068508469421_"  style="overflow:visible;"/>
					</clipPath>
					<g style="clip-path:url(#SVGID_00000109029803923933173450000005168152069615090364_);">
						<text transform="matrix(0.8914 -0.4532 0.4532 0.8914 132.7009 17.8427)" class="st19 st20 st21">L</text>
					</g>
				</g>
				<g>
					<defs>
						<rect id="SVGID_00000093176525985759089150000014301944566888577196_" x="-3.5" y="-50.8" width="219.7" height="310.7"/>
					</defs>
					<clipPath id="SVGID_00000084512314963682298170000000304409768389551038_">
						<use xlink:href="#SVGID_00000093176525985759089150000014301944566888577196_"  style="overflow:visible;"/>
					</clipPath>
					<g style="clip-path:url(#SVGID_00000084512314963682298170000000304409768389551038_);">
						<text transform="matrix(0.9009 -0.4341 0.4341 0.9009 134.1718 16.9844)" class="st19 st20 st37">E</text>
					</g>
				</g>
			</g>
		</g>
		<path class="st43" d="M117.3,40c-0.1-2,3.4-12.6,7.5-17.4c6.7-7.8,14.3-7.8,15.4-8"/>
	</g>
</g>
</svg>
