<?xml version="1.0" encoding="UTF-8"?><svg id="Layer_1" xmlns="http://www.w3.org/2000/svg" viewBox="0 0 569.38 432.89"><path d="m559.72,418.4c2.44.4,4.72.61,6.9,1.2,1.02.28,1.85,1.28,2.76,1.95-1.08.73-2.13,2.04-3.26,2.11-12.96.87-25.23-1.81-36.48-8.29-2.52-1.45-3.96-1.56-6.57-.13-20.32,11.08-40.69,10.61-60.86-.56-2.51-1.39-5.01-4.71-7.13-4.41-2.39.33-4.29,3.82-6.5,5.82-14.57,13.22-31.35,14.75-49.03,8.21-5.77-2.13-10.86-6.28-15.98-9.91-2.18-1.54-3.12-1.89-5.24.22-7.48,7.43-17,11.24-27.23,12.05-21.38,1.69-40.03-5.42-56.05-19.51-2.92-2.57-4.21-1.37-6.13,1.32-9.5,13.31-22.19,21.34-38.94,20.11-13.31-.98-25.06-6.78-35.54-15.04-1.15-.91-2.45-1.66-3.51-2.67-1.99-1.91-3.37-1.49-4.67.79-9.73,17.15-30.98,20.21-48.58,11.78-6.83-3.27-12.97-7.96-19.45-11.98-1.08-.67-2.24-1.22-3.42-1.86-5.24,19.9-27.13,28.05-45.79,20.54-9.76-3.93-18.5-9.32-26.34-16.27-.48-.42-1.05-.75-1.63-1.03-.27-.13-.65-.02-.99-.03-7.91,13.47-21.39,17.06-35.22,15.79-1.65-.15-3.11-2.28-4.66-3.49,1.68-.46,3.37-1.37,5.04-1.31,10.25.32,19.93-.83,26.97-9.44,1.3-1.59,2.28-3.53,3.03-5.45,1.89-4.85,3.58-5.04,7.81-1.88,7.65,5.71,15.2,11.79,23.57,16.24,10.5,5.58,21.74,7.17,33.23-.73-14.85-6.35-27.39-15.48-38.96-25.79-11.64-10.37-23.81-20.42-33.09-35.25,61.72.93,121.81,1.84,181.9,2.75,0-.27,0-.53.01-.8-13.17-2.56-26.4-4.82-39.48-7.76-18.1-4.07-36.36-7.76-54.04-13.24-30.9-9.59-61.14-21.02-87.99-39.72-16.64-11.59-30.89-25.34-40.22-43.7C.2,243.72-1.48,227.66,1.17,210.92c4.07-25.75,17.6-46.74,33.73-66.29,7.25-8.79,14.84-17.44,23.22-25.12,12.96-11.89,26.36-23.38,40.25-34.16,14.63-11.35,29.64-22.34,45.25-32.28,20.9-13.31,42.49-25.54,63.89-38.05,7.79-4.56,15.83-8.7,23.86-12.82,2.08-1.07,4.57-1.35,7.6-2.19,1.16,8.76,2.19,16.76,3.28,24.76,1.25,9.18,2.64,18.34,3.81,27.53.85,6.63,1.37,13.31,2.18,19.94,1.23,10.02,3.41,20.01,3.63,30.05.15,6.92,3.98,7.75,8.84,9.69,15.98,6.38,32.91,8.4,49.55,11.9,23.28,4.89,46.56,10.06,68,20.94,8.75,4.44,16.32,10.48,22.21,18.53,5.15,7.05,5.58,15.38,5.61,23.35.06,14.8,5.25,27.05,15.23,37.64,12.92,13.71,25.82,27.42,36.39,43.16,10.31,15.35,20.82,30.6,31.92,45.38,7.81,10.4,17.1,19.68,25.07,29.97,4.66,6.02,8.22,12.93,11.89,19.65,1.64,3,3.65,4.34,6.93,4.27,4.17-.08,8.36-.29,12.49.09,1.52.14,3.73,1.47,4.23,2.79,4.26,11.25,7.86,22.67,8.18,34.89.12,4.57.85,9.12,1.32,13.87Zm-64.37-54.58c.66-.17,1.33-.33,1.99-.5-.74-.82-1.47-1.63-2.21-2.45-2.12-.78-4.74-1.02-6.29-2.42-9.29-8.42-18.47-16.98-27.41-25.77-3.77-3.71-6.86-8.1-10.25-12.18-.51.29-1.02.58-1.53.87,1.57,4.35,3.33,8.64,4.67,13.06,3.1,10.21,7.49,20.12,7.13,31.17-.03,1.04,1.63,2.89,2.72,3.07,3.38.57,7.05.77,6.26-4.85h24.91ZM228.37,11.13c-2.73.75-5.04.92-6.85,1.96-18.73,10.79-37.4,21.68-56.05,32.61-28.21,16.52-54.75,35.4-80.01,56.17-18.59,15.29-35.93,31.76-50.58,50.84-13.98,18.2-25.47,37.64-28.84,61.04-1.77,12.31-.78,24.21,3.54,35.62,5.77,15.25,15.52,27.73,27.98,38.41,19.05,16.32,40.82,27.75,63.88,36.9,21.77,8.64,44,15.96,66.98,20.77,15,3.14,30.01,6.29,45.05,9.23,11.17,2.18,22.36,4.3,33.61,5.96,8.5,1.25,17.12,1.73,27.11,2.69-7.19-7.94-13.15-14.71-19.32-21.3-9.29-9.91-18.95-19.48-28.03-29.57-13.24-14.72-26.31-29.61-39.09-44.73-14.38-17.02-27.39-35.04-37.16-55.19-5.82-11.99-10.1-24.58-11.22-37.83-1.86-21.93,3.18-42.64,12.64-62.44,12.03-25.17,28.54-47.25,46.61-68.23,9.45-10.97,19.41-21.5,29.77-32.92Zm165.74,355.25c1.35.34,3.46,1.27,5.6,1.33,6.65.2,13.32-.05,19.97.1,3.72.08,6.53-1.38,6.62-5.01.15-5.6,0-11.33-1.07-16.8-3.06-15.57-8.6-30.28-18.36-42.96-12.09-15.69-30.02-17.8-42.13.94-3.55,5.49-6,11.71-8.72,17.7-5.83,12.84-8.27,26.43-8.78,40.46-.12,3.38.81,4.77,4.44,4.7,10.65-.2,21.31.05,31.96-.21,1.6-.04,4.17-1.57,4.56-2.91,2.01-6.92,3.37-14.02,5.17-21.01.44-1.73,1.65-3.26,2.51-4.88.82,1.72,2.53,3.56,2.31,5.15-1,7.44-2.53,14.8-4.08,23.4Zm128.93,2.94c.49-.43.97-.87,1.46-1.3-.42-1.18-.6-2.53-1.29-3.52-6.44-9.26-12.18-19.16-19.62-27.55-17.4-19.62-34.02-39.74-47.73-62.16-8.71-14.24-19.02-27.27-31.04-38.85-1.86-1.8-5.99-3.63-7.57-2.75-2.09,1.17-3.65,4.94-3.79,7.67-.56,11.15-.34,22.32,3.79,32.98,3.91,10.09,9.37,18.99,17.91,25.97,7.52,6.15,14.99,12.45,21.85,19.3,9.54,9.53,18.38,19.75,27.74,29.46,5.27,5.47,11.62,8.6,19.64,8.34,5.44-.18,10.55,1.33,13.63,6.8,1.2,2.14,3.32,3.75,5.03,5.61ZM235.1,12.21c-24.06,24.05-44.9,48.33-63.6,75.68,2.52.35,4.19.72,5.88.78,3.99.14,8.18-.65,11.95.31,13.89,3.52,27.67,7.5,41.43,11.53,3.87,1.13,7.54,2.97,11.27,4.55,2.36,1,5.28,1.6,4.94-1.91-1.28-13.09-3.04-26.14-4.75-39.18-1.58-12.07-3.33-24.12-5-36.19-.65-4.71-1.29-9.42-2.12-15.57Zm62.31,352.85c.48.17.96.34,1.45.52.15.06.29.17.44.17,11.16,0,22.31,0,33.47.01,6.81,0,7.78-.67,8.41-7.36.72-7.7,1.11-15.42,1.61-22.69,1.55-1.37,3.73-2.4,4.37-4.02,2.98-7.57,5.7-15.25,8.13-23.01.77-2.47,1.36-5.79.34-7.9-5.54-11.53-20.88-14.51-29.66-8.04-3.34,2.46-6.75,5.63-8.55,9.26-5.13,10.35-10.35,20.81-13.84,31.77-3.2,10.07-4.2,20.85-6.16,31.32Zm87.99-166.64c-1.45,1.81-3.68,3.34-3.98,5.18-1.11,6.71-5.15,11.36-9.56,16.03-4.07,4.31-8.01,8.83-11.4,13.68-3.27,4.69-3.43,10.49-1.26,15.45,2.34,5.37,7.59,6.97,13.45,7.05,14.19.18,24.43-7.3,33.03-17.27,4.87-5.64,7.06-13.29,3.58-20.12-6.43-12.6-8.59-25.76-9.09-39.65-.3-8.35-3.12-14.94-12.87-15.12-6.2-.11-14.08,5.48-14.95,9.1-2.41,10-.59,19.2,5.84,23.13,2.1,1.28,4.73,1.7,7.23,2.55Zm-108.75,105.74c3.67-4.19,6.14-7.47,9.07-10.28,11.08-10.65,22.25-21.22,33.48-31.7,14-13.07,28.19-25.94,42.13-39.08,4.56-4.3,8.75-9.04,12.76-13.88,1.27-1.54,1.39-4.03,2.03-6.09-1.83-.47-3.76-1.56-5.47-1.29-6.67,1.05-13.42,2.01-19.86,3.94-16.78,5.03-29.05,16.57-40.14,29.42-11.73,13.59-23.14,27.46-34.58,41.3-1.02,1.24-1.81,3.21-1.7,4.76.51,7.1,1.38,14.18,2.29,22.9Zm50.55-40.63c-1.02.41-2.8.62-3.82,1.61-12.98,12.53-26.01,25.02-38.64,37.91-2.91,2.97-6.27,7.47-6.11,11.12.51,12.16,2.52,24.26,3.95,36.38.68-.05,1.14.05,1.28-.12,1.15-1.38,2.06-3,3.36-4.19,8.17-7.46,12.95-16.72,16.13-27.27,4.11-13.58,10.8-25.71,23.84-33.13v-22.31Zm191.98,117.16c-7.33.68-13.75-2.14-17.66-7.01-3.14-3.91-6.07-4.23-9.79-3.73-1.29.17-3.26,2.22-3.31,3.49-.47,10.12-2.74,19.81-6.06,29.31-1.56,4.45-3.05,8.93-4.77,13.98,10.02,0,18.97.17,27.9-.15,1.66-.06,4.28-1.76,4.72-3.23,3.19-10.64,5.94-21.41,8.97-32.68Zm26.74-8.92c-5.81,0-11.14-.21-16.44.14-1.44.09-3.67,1.58-4.02,2.86-3.19,11.45-6.08,22.99-8.92,34.53-.25,1,.48,2.24.83,3.7,1.71-1.21,2.95-1.98,4.07-2.89,3.13-2.54,5.86-2.35,9.55-.35,5.46,2.96,11.62,4.61,17.32,7.16,4.52,2.03,4.87-.14,5.1-3.85.86-14.3-3.19-27.64-7.48-41.29Zm-315.55-63.53c7.94,8.54,16.69,17.94,25.65,27.57,4.83-7.63,9.6-15.03,14.21-22.52.96-1.55,2.03-3.53,1.87-5.19-.76-7.82-1.93-15.59-2.98-23.58-13.33,8.16-26.02,15.93-38.76,23.73Zm47.87,50.34c-1.45-12.57-2.9-25.14-4.38-38-1.01.28-2.18.25-2.45.73-2.83,5.01-7.63,8.89-5.48,16.2,2.37,8.09,5.54,15.31,12.31,21.07Zm16.69-10.54c-5.67.35-11.45,9.82-10.17,16.52h8.1c.7-5.59,1.36-10.87,2.07-16.52Zm224.33,24.96c-4.06-6.83-10.75-8.65-14.85-4.04,5.03,5.97,10.28,7.4,14.85,4.04Z" style="fill:#ff1922;"/><path d="m228.37,11.13c-10.36,11.42-20.32,21.95-29.77,32.92-18.08,20.98-34.59,43.07-46.61,68.23-9.46,19.8-14.5,40.51-12.64,62.44,1.12,13.26,5.41,25.84,11.22,37.83,9.78,20.15,22.78,38.17,37.16,55.19,12.78,15.12,25.84,30.01,39.09,44.73,9.08,10.09,18.74,19.66,28.03,29.57,6.17,6.58,12.13,13.35,19.32,21.3-9.99-.96-18.6-1.44-27.11-2.69-11.25-1.66-22.45-3.78-33.61-5.96-15.04-2.94-30.05-6.09-45.05-9.23-22.98-4.82-45.21-12.13-66.98-20.77-23.06-9.16-44.83-20.58-63.88-36.9-12.46-10.68-22.22-23.16-27.98-38.41-4.32-11.41-5.31-23.31-3.54-35.62,3.37-23.4,14.87-42.84,28.84-61.04,14.65-19.08,31.99-35.55,50.58-50.84,25.26-20.77,51.79-39.65,80.01-56.17,18.65-10.92,37.32-21.82,56.05-32.61,1.81-1.04,4.13-1.21,6.85-1.96Z" style="fill:#fdfdfd;"/><path d="m394.11,366.37c1.56-8.6,3.08-15.97,4.08-23.4.21-1.58-1.49-3.43-2.31-5.15-.86,1.62-2.06,3.15-2.51,4.88-1.79,6.99-3.16,14.09-5.17,21.01-.39,1.34-2.96,2.87-4.56,2.91-10.65.26-21.31.01-31.96.21-3.63.07-4.56-1.32-4.44-4.7.51-14.03,2.95-27.62,8.78-40.46,2.72-5.99,5.17-12.21,8.72-17.7,12.11-18.74,30.04-16.63,42.13-.94,9.77,12.68,15.31,27.39,18.36,42.96,1.07,5.47,1.22,11.21,1.07,16.8-.1,3.64-2.91,5.1-6.62,5.01-6.66-.15-13.32.09-19.97-.1-2.14-.06-4.25-.99-5.6-1.33Z" style="fill:#fdfdfd;"/><path d="m523.04,369.31c-1.7-1.85-3.83-3.47-5.03-5.61-3.08-5.46-8.19-6.97-13.63-6.8-8.02.26-14.37-2.87-19.64-8.34-9.36-9.71-18.2-19.93-27.74-29.46-6.87-6.86-14.33-13.16-21.85-19.3-8.54-6.98-14.01-15.88-17.91-25.97-4.13-10.67-4.35-21.83-3.79-32.98.14-2.73,1.7-6.5,3.79-7.67,1.58-.88,5.7.95,7.57,2.75,12.02,11.58,22.33,24.61,31.04,38.85,13.71,22.42,30.33,42.54,47.73,62.16,7.44,8.39,13.18,18.29,19.62,27.55.69.99.87,2.34,1.29,3.52-.49.43-.97.87-1.46,1.3Z" style="fill:#fff;"/><path d="m297.42,365.06c1.97-10.47,2.96-21.24,6.16-31.32,3.48-10.96,8.7-21.42,13.84-31.77,1.8-3.63,5.2-6.79,8.55-9.26,8.78-6.48,24.12-3.5,29.66,8.04,1.02,2.12.43,5.43-.34,7.9-2.43,7.76-5.15,15.44-8.13,23.01-.64,1.63-2.82,2.65-4.37,4.02-.5,7.27-.89,15-1.61,22.69-.63,6.7-1.6,7.37-8.41,7.36-11.16-.01-22.31,0-33.47-.01-.15,0-.29-.11-.44-.17-.48-.17-.96-.34-1.45-.52Z" style="fill:#fdfdfd;"/><path d="m385.4,198.42c-2.5-.85-5.13-1.27-7.23-2.55-6.43-3.93-8.24-13.12-5.84-23.13.87-3.62,8.74-9.21,14.95-9.1,9.76.18,12.57,6.77,12.87,15.12.5,13.89,2.66,27.05,9.09,39.65,3.49,6.83,1.29,14.48-3.58,20.12-8.6,9.97-18.84,17.45-33.03,17.27-5.86-.07-11.11-1.68-13.45-7.05-2.16-4.96-2.01-10.77,1.26-15.45,3.39-4.85,7.33-9.36,11.4-13.68,4.41-4.68,8.45-9.32,9.56-16.03.31-1.84,2.53-3.37,3.98-5.18Z" style="fill:#fff;"/><path d="m282.59,350.54c-1.43-12.12-3.45-24.22-3.95-36.38-.15-3.66,3.2-8.15,6.11-11.12,12.63-12.88,25.66-25.37,38.64-37.91,1.02-.99,2.8-1.2,3.82-1.61v22.31c-13.04,7.42-19.73,19.54-23.84,33.13-3.19,10.55-7.96,19.81-16.13,27.27" style="fill:#fff;"/><path d="m545.93,371.77c4.29,13.65,8.35,26.99,7.48,41.29-.22,3.71-.58,5.88-5.1,3.85-5.7-2.56-11.86-4.2-17.32-7.16-3.69-2-6.42-2.19-9.55.35-1.12.91-2.36,1.68-4.07,2.89-.35-1.45-1.08-2.69-.83-3.7,2.84-11.54,5.73-23.08,8.92-34.53.35-1.27,2.58-2.76,4.02-2.86,5.3-.34,10.63-.14,16.44-.14Z" style="fill:#fff;"/><path d="m278.26,358.57c-6.77-5.77-9.93-12.98-12.31-21.07-2.15-7.31,2.65-11.19,5.48-16.2.27-.48,1.44-.45,2.45-.73,1.48,12.86,2.93,25.43,4.38,38Z" style="fill:#fff;"/><path d="m519.28,372.99c-4.57,3.36-9.82,1.93-14.85-4.04,4.1-4.61,10.79-2.79,14.85,4.04Z" style="fill:#fff;"/><path d="m495.35,363.81c-.07-.98-.14-1.96-.22-2.95.74.82,1.47,1.63,2.21,2.45-.66.17-1.33.33-1.99.5Z" style="fill:#ff1922;"/></svg>