<?xml version="1.0" encoding="UTF-8"?><svg id="Layer_1" xmlns="http://www.w3.org/2000/svg" viewBox="0 0 1167.2 25.28"><path d="m1.47,24.69L1.17,1.36c9.95,5.26,21.49.35,21.6.3l.41-.18.35.27c9,6.92,19.86.53,19.97.47l.39-.24.39.24c11.14,6.95,24.15-1.16,24.28-1.24l.49-.31.42.39c9.01,8.32,22.17.57,22.3.5l.53-.32.41.46c6.18,6.95,19.89-.1,20.03-.17l.62-.32.37.6c4.72,7.74,19.68.17,19.83.09l.39-.2.36.24c8.78,5.71,18.42-.17,18.52-.23l.37-.23.38.2c9.91,5.23,19.76.06,19.86,0l.43-.23.39.3c9.02,6.94,19.86.53,19.97.47l.4-.24.39.25c10.03,6.42,24.17-1.19,24.31-1.27l.47-.26.4.37c9,8.31,22.17.57,22.3.5l.53-.32.41.46c6.18,6.95,19.89-.09,20.03-.17l.62-.32.37.6c4.72,7.73,19.68.17,19.83.09l.39-.2.37.25c.11.08,11.62,7.6,26.19-.04l.34-.18.35.18c.15.08,15.11,7.65,19.83-.09l.37-.6.62.33c.14.07,13.85,7.11,20.03.17l.41-.46.53.32c.13.08,13.3,7.81,22.3-.5l.4-.37.47.26c.14.08,14.28,7.69,24.31,1.27l.39-.25.4.24c.11.06,10.97,6.46,19.97-.47l.38-.3.43.23c.1.05,9.94,5.23,19.86,0l.38-.2.37.23c.1.06,9.74,5.94,18.52.23l.36-.24.39.2c.15.08,15.11,7.65,19.83-.09l.37-.6.62.33c.14.07,13.85,7.11,20.03.17l.41-.46.53.32c.13.08,13.31,7.81,22.3-.5l.4-.37.47.26c.14.08,14.28,7.69,24.31,1.27l.39-.25.4.24c.11.06,10.97,6.46,19.97-.47l.42-.33.45.29c.1.07,10.04,6.45,20.93.2l.15-.07.54-.17-.02,1.58c-.02.69-.02,20.69.03,19.99L1.47,24.69Z" style="fill:#fff;"/><path d="m594.67,24.69l-.3-23.33c-.5-.08.29.35.4.3l.41-.18.35.27c9,6.92,19.86.53,19.97.47l.39-.24.39.24c11.14,6.95,24.15-1.16,24.28-1.24l.49-.31.42.39c9.01,8.32,22.17.57,22.3.5l.53-.32.41.46c6.18,6.95,19.89-.1,20.03-.17l.62-.32.37.6c4.72,7.74,19.68.17,19.83.09l.39-.2.36.24c8.78,5.71,18.42-.17,18.52-.23l.37-.23.38.2c9.91,5.23,19.76.06,19.86,0l.43-.23.39.3c9.02,6.94,19.86.53,19.97.47l.4-.24.39.25c10.03,6.42,24.17-1.19,24.31-1.27l.47-.26.4.37c9,8.31,22.17.57,22.3.5l.53-.32.41.46c6.18,6.95,19.89-.09,20.03-.17l.62-.32.37.6c4.72,7.73,19.68.17,19.83.09l.39-.2.37.25c.11.08,11.62,7.6,26.19-.04l.34-.18.35.18c.15.08,15.11,7.65,19.83-.09l.37-.6.62.33c.14.07,13.85,7.11,20.03.17l.41-.46.53.32c.13.08,13.3,7.81,22.3-.5l.4-.37.47.26c.14.08,14.28,7.69,24.31,1.27l.39-.25.4.24c.11.06,10.97,6.46,19.97-.47l.38-.3.43.23c.1.05,9.94,5.23,19.86,0l.38-.2.37.23c.1.06,9.74,5.94,18.52.23l.36-.24.39.2c.15.08,15.11,7.65,19.83-.09l.37-.6.62.33c.14.07,13.85,7.11,20.03.17l.41-.46.53.32c.13.08,13.31,7.81,22.3-.5l.4-.37.47.26c.14.08,14.28,7.69,24.31,1.27l.39-.25.4.24c.11.06,10.97,6.46,19.97-.47l.42-.33.45.29c.1.07,10.04,6.45,20.93.2l.15-.07.54-.17-.02,1.58c-.02.69-.02,20.69.03,19.99l-572.52,1.44Z" style="fill:#fff;"/><path d="m594.37,2.45c-10.19,5.62-19.5,1.34-21.65.13-8.69,6.3-18.71,1.61-20.84.48-9.78,5.9-22.36.12-24.99-1.21-8.71,7.55-20.53,2.01-23.16.62-6.34,6.35-18,1.37-20.83.03-5.32,7.39-18.53,1.47-21.03.26-8.45,5.21-17.45.84-19.38-.23-9.41,4.75-18.39,1.02-20.47.02-8.7,6.33-18.73,1.63-20.87.5-9.78,5.9-22.36.12-24.99-1.21-8.71,7.55-20.53,2.01-23.16.62-6.34,6.35-18,1.37-20.83.03-5.35,7.42-18.67,1.4-21.07.24-4.92,2.51-9.66,3.42-13.84,3.42-5.85,0-10.59-1.78-13.18-3.4-2.51,1.21-15.71,7.12-21.02-.26-2.82,1.35-14.48,6.32-20.83-.03-2.63,1.39-14.45,6.93-23.16-.62-2.62,1.33-15.21,7.11-24.99,1.21-2.13,1.13-12.17,5.83-20.87-.5-2.08,1-11.06,4.73-20.47-.02-1.94,1.06-10.93,5.43-19.39.23-2.49,1.21-15.71,7.13-21.03-.26-2.82,1.35-14.49,6.32-20.83-.03-2.63,1.39-14.43,6.92-23.14-.6-2.54,1.44-14.44,7.46-25,1.19-2.13,1.13-12.19,5.85-20.9-.52-2.23.88-12.86,4.57-22.49-.52L.7.69c9.95,5.26,21.49.35,21.6.3l.41-.18.35.27c9,6.92,19.86.53,19.97.47l.39-.24.39.24c11.14,6.95,24.15-1.16,24.28-1.24l.49-.31.42.39c9.01,8.32,22.17.57,22.3.5l.53-.32.41.46c6.18,6.95,19.89-.1,20.03-.17l.62-.32.37.6c4.72,7.74,19.68.17,19.83.09l.39-.2.36.24c8.78,5.71,18.42-.17,18.52-.23l.37-.23.38.2c9.92,5.23,19.76.06,19.86,0l.43-.23.39.3c9.02,6.94,19.86.53,19.97.47l.4-.24.39.25c10.03,6.42,24.17-1.19,24.31-1.27l.47-.26.4.37c9,8.31,22.17.57,22.3.5l.53-.32.41.46c6.18,6.95,19.89-.09,20.03-.17l.62-.32.37.6c4.72,7.73,19.68.17,19.83.09l.39-.2.37.25c.11.08,11.62,7.6,26.19-.04l.34-.18.35.18c.15.08,15.11,7.65,19.83-.09l.37-.6.62.33c.14.07,13.85,7.11,20.03.17l.41-.46.53.32c.13.08,13.3,7.81,22.3-.5l.4-.37.47.26c.14.08,14.28,7.69,24.31,1.27l.39-.25.4.24c.11.06,10.97,6.46,19.97-.47l.38-.3.43.23c.1.05,9.94,5.23,19.86,0l.38-.2.37.23c.1.06,9.74,5.94,18.52.23l.36-.24.39.2c.15.08,15.11,7.65,19.83-.09l.37-.6.62.33c.14.07,13.85,7.11,20.03.17l.41-.46.53.32c.13.08,13.31,7.81,22.3-.5l.4-.37.47.26c.14.08,14.28,7.69,24.31,1.27l.39-.25.4.24c.11.06,10.97,6.46,19.97-.46l.42-.33.45.29c.1.07,10.04,6.45,20.93.2l.69-.44.35.27c9,6.92,19.86.53,19.97.47l.39-.24.39.24c11.14,6.95,24.15-1.16,24.28-1.24l.49-.31.42.39c9.01,8.32,22.17.57,22.3.5l.53-.32.41.46c6.18,6.95,19.89-.1,20.03-.17l.62-.32.37.6c4.72,7.74,19.68.17,19.83.09l.39-.2.37.24c8.77,5.71,18.42-.17,18.52-.23l.37-.23.38.2c9.91,5.23,19.76.06,19.86,0l.43-.23.39.3c9,6.92,19.86.53,19.97.47l.4-.24.39.25c10.03,6.42,24.17-1.19,24.31-1.27l.47-.26.4.37c9.01,8.32,22.17.58,22.3.5l.53-.32.41.46c6.18,6.95,19.89-.09,20.03-.17l.62-.32.37.6c4.73,7.74,19.68.17,19.83.09l.39-.2.37.25c.12.08,11.62,7.6,26.19-.04l.34-.18.35.18c.15.08,15.11,7.64,19.83-.09l.37-.6.62.33c.14.07,13.85,7.11,20.03.17l.41-.46.53.32c.13.08,13.3,7.81,22.3-.5l.4-.37.47.26c.14.08,14.28,7.69,24.31,1.27l.39-.25.4.24c.11.06,10.97,6.45,19.97-.47l.38-.3.43.23c.1.05,9.94,5.23,19.86,0l.38-.2.37.23c.1.06,9.74,5.94,18.52.23l.37-.24.39.2c.15.08,15.11,7.64,19.83-.09l.37-.6.62.33c.14.07,13.85,7.11,20.03.17l.41-.46.53.32c.13.08,13.3,7.81,22.3-.5l.4-.37.47.26c.14.08,14.29,7.69,24.31,1.27l.39-.25.4.24c.11.06,10.97,6.46,19.97-.47l.42-.33.45.29c.1.07,10.04,6.45,20.93.2l.15-.07.54-.17.45,1.43-.46.14c-10.31,5.87-19.8,1.21-21.97-.01-8.69,6.3-18.71,1.61-20.84.48-9.78,5.9-22.36.12-24.99-1.21-8.71,7.55-20.53,2.01-23.16.62-6.34,6.35-18,1.37-20.83.03-5.32,7.39-18.54,1.47-21.03.26-8.45,5.21-17.45.84-19.38-.23-9.41,4.75-18.39,1.02-20.47.02-8.7,6.33-18.73,1.63-20.87.5-9.78,5.9-22.36.12-24.99-1.21-8.71,7.55-20.53,2.01-23.16.62-6.34,6.35-18,1.37-20.83.03-5.35,7.43-18.67,1.4-21.07.24-4.92,2.51-9.66,3.42-13.84,3.42-5.85,0-10.59-1.78-13.18-3.4-2.51,1.21-15.71,7.12-21.02-.26-2.82,1.35-14.48,6.32-20.83-.03-2.63,1.39-14.45,6.93-23.16-.62-2.63,1.33-15.21,7.11-24.99,1.21-2.13,1.13-12.17,5.83-20.87-.5-2.08,1-11.06,4.73-20.47-.02-1.94,1.06-10.93,5.43-19.39.23-2.49,1.21-15.71,7.13-21.03-.26-2.82,1.35-14.49,6.32-20.83-.03-2.63,1.39-14.43,6.92-23.14-.6-2.54,1.44-14.44,7.46-25,1.19-2.13,1.13-12.19,5.85-20.9-.52l-.12-.08Z" style="fill:#ff1922;"/><rect x="1.67" y="14.28" width="1165" height="11" style="fill:#fff;"/></svg>