<svg id="Layer_1" data-name="Layer 1" xmlns="http://www.w3.org/2000/svg" viewBox="0 0 221.08 220.42"><defs><style>.cls-1,.cls-2{fill:none;}.cls-1,.cls-2,.cls-3{stroke:#ec232b;stroke-miterlimit:10;stroke-width:2px;}.cls-1{stroke-linecap:round;}.cls-3,.cls-4{fill:#ec232b;}.cls-5{fill:#ea242a;}</style></defs><path class="cls-1" d="M992.22,491.29s-4.79-.72-7.1,3.44-3.24,17.29-4.17,21-.88,14.56,0,17.19c0,0-3.83-3.14-7.2-4.07-6.69-1.85-9.44-3.05-15.2-7.42-1.55-1.17-1.73-2.93-3.94-2.78-1.16.08-2.53,2.22-1.2,3.42,1.66,1.48,1.51,1.71,1.51,1.71s0,.57-4-.54-3.68-.69-4.17-.43c-1.18.61-2.29,3.93-1.18,6.45.72,1.65,2,2.78,6.32,3.14s7.72,1.85,12.51,5.09,11.35,8.53,15.94,9.16c7.51,1,9,1,12.27-1.93,4-3.55,4.91-5.39,6-12.22.87-5.76.15-8.18.15-8.18" transform="translate(-844.68 -425.26)"/><path class="cls-2" d="M943.09,568.05A2.33,2.33,0,0,1,941.7,565c.45-1.55,4.83-3.82,6.68-6.75s1.78-5.4-1.15-16.51a26.25,26.25,0,0,1-.7-10.27" transform="translate(-844.68 -425.26)"/><path class="cls-2" d="M949,515.07s-1.58,4.16-1.5,6.63" transform="translate(-844.68 -425.26)"/><path class="cls-2" d="M960.58,557.7a5.36,5.36,0,0,0,1.93-4.63c-.16-3.19-1.66-8.62-1.55-10.65s.19-5.38,1-6.33" transform="translate(-844.68 -425.26)"/><path class="cls-3" d="M971.36,519.81a48.2,48.2,0,0,1,4,9.59" transform="translate(-844.68 -425.26)"/><path class="cls-2" d="M1024.63,479.76s-24.39,18.83-33,38.28" transform="translate(-844.68 -425.26)"/><path class="cls-2" d="M1021.54,516.49s-4.63,3.71-13.58,19.45" transform="translate(-844.68 -425.26)"/><path class="cls-4" d="M967.74,494.43s-5.81,3.32-8.54,6.28a19.43,19.43,0,0,0-1.85,2c-1.1,1.4-1.08,3.59-1.65,4.3-2.89,3.52-5,6-2.71,3.7,1.91-1.9,9.44-2.55,12.31.85a16.93,16.93,0,0,1,3.23,4.84c.78,1.66,2.17,4.25,2.17,4.25s9.11-.07,10.12-4.55a106.75,106.75,0,0,0,2-10.8c.31-2.93.16-6.48,1.24-8.64s4.71-4.25,7.29-4.09c1.66.1,3.18,2.74,3.18,2.74l-1.19-5s-5.23-3.15-11.24,5.79c-4.05,6-10.92,6.84-13,6.84-2.51,0-5-1.69-3.9-3.7C966,497.83,966,497.75,967.74,494.43Z" transform="translate(-844.68 -425.26)"/><path class="cls-4" d="M968.89,482.05s2.31,1.08,1.85,2.78-.16,2.31,1.54,1.08,2.78-3.09,2.62-4.63-.92-.93-.92-.93a3.45,3.45,0,0,1-4.35,1.34C966.85,480.46,968.89,482.05,968.89,482.05Z" transform="translate(-844.68 -425.26)"/><path class="cls-4" d="M1000.34,526.73s8.06,12.71,6,22.89-16.56,21.6-23.35,21.75-10.81-1.23-12.66-2.31a8.41,8.41,0,0,1-2.87-3.72s4.4,3.12,6.69,2.42c3.43-1,5.75-3.48,6.11-8.72.3-4.44.32-9.45-.21-10.75-.22-.53-.55-.57-1-.81-2.84-1.54-3.3-1.23-6.27-3s-6.86-4.6-9.64-4.45-2.13.65-2.13.65-.43-4.33.19-4.79a5.74,5.74,0,0,1,1.23-.7s5.94,4.09,8.26,5.79,15.09,6.57,19.13,4.41a10.34,10.34,0,0,0,1.65-1.35c1.31-1,4.25-6.58,4.94-9.87.93-4.4.72-15.13.72-15.13Z" transform="translate(-844.68 -425.26)"/><path class="cls-5" d="M881.72,593.64l-1.19,23.19-5.38-6.18.78-15.22-7.9,6.89-3.74-4.3L887,578.27l3.74,4.3-6.4,5.58,12.18,1.05,5.38,6.18Z" transform="translate(-844.68 -425.26)"/><path class="cls-5" d="M918.77,606.8l-4,32.21-5.37-2.94,1.08-8.72-8.5-4.64-6.75,5.61-5.38-2.94,25-20.74Zm-7.53,14.48.87-7-5.41,4.49Z" transform="translate(-844.68 -425.26)"/><path class="cls-5" d="M959.61,632.21a15.09,15.09,0,1,1-13.37-16.62A15.11,15.11,0,0,1,959.61,632.21ZM954,631.6a9.39,9.39,0,1,0-10.35,8.33A9.4,9.4,0,0,0,954,631.6Z" transform="translate(-844.68 -425.26)"/><path class="cls-5" d="M995.19,639.87l-6.68,1.9-7.71-6.3-2.2.62,2.22,7.84-5.47,1.56-8.24-29,8.63-2.45a11,11,0,0,1,10.56,18.58Zm-11.34-16.7a5.31,5.31,0,0,0-6.56-3.66l-3.15.89,2.9,10.22,3.15-.9A5.31,5.31,0,0,0,983.85,623.17Z" transform="translate(-844.68 -425.26)"/><path class="cls-5" d="M1011.5,625.3l8.17-5.44,3.16,4.74-12.91,8.59-16.73-25.11,4.74-3.16Z" transform="translate(-844.68 -425.26)"/><path class="cls-5" d="M1011.67,595.15,1023,581.44l4.39,3.63-7.7,9.32,4.44,3.67,7.7-9.32,4.39,3.63-7.7,9.32,5.65,4.67,7.7-9.32,4.39,3.63-11.33,13.71Z" transform="translate(-844.68 -425.26)"/><path class="cls-5" d="M864.71,506.34l21.11-9.66-3,7.63L869,510.65l9.76,3.82-2.08,5.3-28-11,2.08-5.3,7.91,3.1L854,495.31l3-7.63Z" transform="translate(-844.68 -425.26)"/><path class="cls-5" d="M892.51,464.34a15.08,15.08,0,1,1-21.27,1.76A15.1,15.1,0,0,1,892.51,464.34Zm-3.68,4.34a9.39,9.39,0,1,0,1.1,13.24A9.4,9.4,0,0,0,888.83,468.68Z" transform="translate(-844.68 -425.26)"/><path class="cls-5" d="M912,462.72l8.6-4.73,2.74,5-13.58,7.48L895.21,444l5-2.74Z" transform="translate(-844.68 -425.26)"/><path class="cls-5" d="M934.81,453.07l9.6-2.07,1.2,5.56-15.16,3.28-6.37-29.5,5.57-1.2Z" transform="translate(-844.68 -425.26)"/><path class="cls-5" d="M955.73,425.26l17.71,1.59-.51,5.67-12-1.08-.52,5.73,12,1.09-.51,5.67-12-1.08-.66,7.3,12,1.08-.51,5.67L953,455.31Z" transform="translate(-844.68 -425.26)"/><path class="cls-4" d="M1017.22,436.08c-3.55-2.62-4.32-3.39-7-4.78a14.93,14.93,0,0,0-9.09-1.87,51.76,51.76,0,0,0-7,1.71c-1.36.31-6.63,3.7-9.71,7.41s-6.12,14-8.59,16.87-12.1,6.28-12.26,14.62l-.15,8.33,1.4-2.23s-1.17-4.43,2.39-6c2.63-1.15,3.46-1,5.31-.11s2.94,3.08,4.33,6,2.27,5.05,2.27,5.05l1.91-1.33a4.89,4.89,0,0,1,2.74-4.83c3.24-1.85,4.53-1.88,8.08-1.73s8.84-.19,11.62-2.5,3.21-3.22,5.35-5.68c2.31-2.65,5.76-5.19,7.46-7s5.13-6.11,5.59-11.05S1020.77,438.71,1017.22,436.08Zm-20.79,11.79,6.5,22.29-7.11-4.07-4.27-14.63-5.2,9.1-4.94-2.83,14.91-26.1,4.95,2.83-4.22,7.37,11.85-3,7.12,4.06Z" transform="translate(-844.68 -425.26)"/><path class="cls-4" d="M1018.51,438.27a30.79,30.79,0,0,0-5.24-4.68l-.68-.49a18.67,18.67,0,0,0-5.22-2.82,20.73,20.73,0,0,0-6.87-.45l-.51,0a22.38,22.38,0,0,0-8.16,1.75,20,20,0,0,0-8.17,6.34c-1.71,2.16-3.1,6.24-4.44,10.18-1,2.95-2,6-2.85,6.89a28.12,28.12,0,0,1-3.36,2.71c-3.49,2.6-7.83,5.84-9.16,9.3-2.14,5.56-1.8,10.4,1,13.63a9.54,9.54,0,0,0,4.26,3.18,5.84,5.84,0,0,1,.09,4.5,31.37,31.37,0,0,1-3.71,5.92c-.63.86-1.22,1.68-1.65,2.34a16.88,16.88,0,0,1-2.82,2.77c-2,1.7-3.88,3.3-4,5-.06.26-.49,1.35-.93,2.38a10.81,10.81,0,0,0-7.17,6.18c-.05.1-.09.2-.13.29-1.37.11-5.45,1.11-8.58,8.74s-.77,19.88.21,25.17c.17.91.3,1.59.34,2a21.09,21.09,0,0,1-1.47,9.77,14.7,14.7,0,0,1-1.81,2.42,22.12,22.12,0,0,0-2.2,2.93,4.55,4.55,0,0,0,.73,4.69,3.93,3.93,0,0,0,3.87.75,4,4,0,0,0,1.25-.86l.22-.2c.23,0,.63.15.94.23a12.61,12.61,0,0,0,3.55.58,7.54,7.54,0,0,0,5.7-3.21c1.11-1.63,5.7-4.89,7.91-6.45l.69-.49c.72-.52,1.26-.89,1.66-1.16.74,2.07,2.23,6.09,3.18,7.38a12.58,12.58,0,0,0,4.63,3.41,29.66,29.66,0,0,0,11.61,2.42,21.73,21.73,0,0,0,15.37-6c9.82-9.16,11.06-22.42,9.92-26.4-1.07-3.75-3.58-9.49-5.34-11.59-1.15-1.36-1.45-4.18-1.67-6.23-.06-.51-.11-1-.16-1.39s-.16-1-.27-1.77c-.53-3.33-1.51-9.54-1.27-12.2.28-3.11.94-10.4-3.92-14.92A40.6,40.6,0,0,0,986,485c-2.3-1.53-5.4-4.35-5.18-5.89a11.87,11.87,0,0,1,4.17-6.42,3.47,3.47,0,0,1,2.58-.84l.76.13c3.83.67,8.6,1.5,11.47.23a30.45,30.45,0,0,0,8.65-6.85,32.48,32.48,0,0,0,2-2.69,21.47,21.47,0,0,1,3-3.77c3-2.54,4.4-4,5.68-8.5C1020.08,447.31,1021.7,441.61,1018.51,438.27Zm-1.23,11.55c-1.19,4.16-2.41,5.31-5,7.52a22.11,22.11,0,0,0-3.4,4.16c-.66.94-1.28,1.84-1.88,2.54a31.75,31.75,0,0,1-4.58,4.22l.55,1.9-1.78-1a14.8,14.8,0,0,1-2.12,1.21c-2.31,1-6.94.22-10.31-.37l-.78-.13a5.46,5.46,0,0,0-4.09,1.19,13.85,13.85,0,0,0-5,7.76c-.48,3.34,5,7.14,6.1,7.87l.09.05a38.54,38.54,0,0,1,7.39,5.61c4.14,3.85,3.57,10.21,3.29,13.27-.27,2.91.74,9.28,1.28,12.7.12.73.21,1.33.27,1.73s.1.84.15,1.32c.25,2.31.59,5.48,2.13,7.31s4,7.44,4.95,10.85-.31,15.94-9.37,24.4c-10.3,9.75-24.58,3.29-24.72,3.22a11.61,11.61,0,0,1-3.91-2.8c-.79-1.08-2.41-5.39-3.31-8l-.37-1.09-1,.52a27.36,27.36,0,0,0-2.91,1.93l-.69.48c-3.43,2.44-7.19,5.18-8.41,7a5.47,5.47,0,0,1-4.18,2.34,11.15,11.15,0,0,1-2.9-.51,4.74,4.74,0,0,0-1.85-.3,2.57,2.57,0,0,0-1.18.73,2.64,2.64,0,0,1-.61.47,2,2,0,0,1-1.74-.3,2.72,2.72,0,0,1-.39-2.3,21.14,21.14,0,0,1,2-2.63,14.6,14.6,0,0,0,2.11-2.91,23.27,23.27,0,0,0,1.62-10.8c-.05-.43-.18-1.13-.36-2.1-1-5.12-3.17-17.1-.33-24,2-4.75,4.18-6.5,5.6-7.14a.9.9,0,0,0,.58,1.17c1,.41,1.21-.12,2.51-3a8.69,8.69,0,0,1,6.2-5.14l.55-.08.23-.52a15,15,0,0,0,1.28-3.41c.07-.95,1.88-2.48,3.33-3.72a16.92,16.92,0,0,0,3.2-3.21c.4-.61,1-1.41,1.58-2.25a31.65,31.65,0,0,0,4-6.37c1.11-2.9.32-6.47-1.09-7a7.65,7.65,0,0,1-3.61-2.67c-2.26-2.65-2.47-6.77-.61-11.62,1.12-2.91,5.38-6.09,8.49-8.4a29.69,29.69,0,0,0,3.64-3c1.1-1.21,2.1-4.17,3.27-7.59,1.22-3.61,2.61-7.7,4.11-9.58a18,18,0,0,1,7.46-5.79,14,14,0,0,1,3.2-1l.43-.76.92.52c1-.13,2-.22,2.91-.29l.51,0a18.74,18.74,0,0,1,6.11.37,16.63,16.63,0,0,1,4.64,2.53l.71.51a28.21,28.21,0,0,1,4.94,4.43C1019.17,441.86,1018.41,445.85,1017.28,449.82Z" transform="translate(-844.68 -425.26)"/><path class="cls-5" d="M1025.18,449.32l13.59,13.17-4,4.09-4.75-4.61-17,17.58-4.09-4L1026,458l-4.75-4.6Z" transform="translate(-844.68 -425.26)"/><path class="cls-5" d="M1048.36,475.2l3,4.87-25.75,15.67-3-4.86Z" transform="translate(-844.68 -425.26)"/><path class="cls-5" d="M1064.21,512l1.55,5.77-31.64-1.45-.62-2.3h-.08l.07,0-.62-2.31,26.64-17.13,1.55,5.77-16.78,10.79Z" transform="translate(-844.68 -425.26)"/><text x="-844.68" y="-425.26"/><path class="cls-5" d="M854.37,557.09l-1.12-4.71-1.11,4.71h-1.37l-2-8.28h1.6l1,4.4,1-4.4H854l1,4.4,1-4.4h1.6l-2,8.28Z" transform="translate(-844.68 -425.26)"/><path class="cls-5" d="M860.44,548.82H862v8.27h-1.56Z" transform="translate(-844.68 -425.26)"/><path class="cls-5" d="M864.73,548.81h4.88v1.57H866.3V552h3.31v1.56H866.3v2h3.31v1.56h-4.88Z" transform="translate(-844.68 -425.26)"/><path class="cls-5" d="M877,548.75h1.56V557H878v.06l0-.06h-.74l-3.28-5.14V557h-1.57v-8.28H873v-.06l0,.06h.74l3.28,5.13Z" transform="translate(-844.68 -425.26)"/><path class="cls-5" d="M1039.22,554.5c-.31.34-.64.7-.89,1h2.9v1.57h-4.89v-.78c0-1,.84-1.9,1.73-2.87.72-.78,1.62-1.76,1.62-2.44,0-.35-.41-.64-.89-.64a.86.86,0,0,0-.9.87v.47h-1.56v-.47a2.51,2.51,0,0,1,.62-1.64,2.49,2.49,0,0,1,4.3,1.41C1041.26,552.29,1040.22,553.42,1039.22,554.5Z" transform="translate(-844.68 -425.26)"/><path class="cls-5" d="M1048.31,549.84a8.18,8.18,0,0,1,0,6.2,2.06,2.06,0,0,1-1.86,1.05,2.08,2.08,0,0,1-1.86-1.05,8.31,8.31,0,0,1,0-6.2,2.08,2.08,0,0,1,1.86-1.05A2.06,2.06,0,0,1,1048.31,549.84Zm-1,3.1a4.13,4.13,0,0,0-.44-2.38.53.53,0,0,0-.46-.24.52.52,0,0,0-.45.24,6.52,6.52,0,0,0,0,4.76.52.52,0,0,0,.45.24.53.53,0,0,0,.46-.24A4.13,4.13,0,0,0,1047.35,552.94Z" transform="translate(-844.68 -425.26)"/><path class="cls-5" d="M1054.53,554.5c-.3.34-.64.7-.89,1h2.9v1.57h-4.89v-.78c0-1,.84-1.9,1.73-2.87.72-.78,1.62-1.76,1.62-2.44,0-.35-.4-.64-.89-.64a.85.85,0,0,0-.89.87v.47h-1.57v-.47a2.47,2.47,0,0,1,.63-1.64,2.48,2.48,0,0,1,4.29,1.41C1056.57,552.29,1055.54,553.42,1054.53,554.5Z" transform="translate(-844.68 -425.26)"/><path class="cls-5" d="M1063.63,549.84a8.31,8.31,0,0,1,0,6.2,2.08,2.08,0,0,1-1.86,1.05,2.06,2.06,0,0,1-1.86-1.05,8.18,8.18,0,0,1,0-6.2,2.06,2.06,0,0,1,1.86-1.05A2.08,2.08,0,0,1,1063.63,549.84Zm-1,3.1a4,4,0,0,0-.45-2.38.52.52,0,0,0-.45-.24.53.53,0,0,0-.46.24,6.66,6.66,0,0,0,0,4.76.53.53,0,0,0,.46.24.52.52,0,0,0,.45-.24A4,4,0,0,0,1062.67,552.94Z" transform="translate(-844.68 -425.26)"/><path class="cls-2" d="M900,586.81s12.72-7.08,21.65-4.74,11.11,6.12,19.81,6.12c7.3,0,11.82-7.4,23.56-6.94s11.73,5.29,21,5.9c9.08.6,19.84-5.26,28.25-2.44" transform="translate(-844.68 -425.26)"/><path class="cls-2" d="M907.83,593.53s4.22-2.78,12.73-1.11c9.05,1.76,11.11,6.12,19.82,6.12,7.3,0,11.81-7.4,23.55-6.94s11.73,5.29,21,5.9c9.07.6,10.5-3.6,19.08-2.7" transform="translate(-844.68 -425.26)"/></svg>