<?xml version="1.0" encoding="utf-8"?>
<!-- Generator: Adobe Illustrator 26.0.0, SVG Export Plug-In . SVG Version: 6.00 Build 0)  -->
<svg version="1.1" xmlns="http://www.w3.org/2000/svg" xmlns:xlink="http://www.w3.org/1999/xlink" x="0px" y="0px"
	 viewBox="0 0 447.1 147.4" style="enable-background:new 0 0 447.1 147.4;" xml:space="preserve">
<style type="text/css">
	.st0{fill:#FF0000;}
	.st1{fill:#292929;}
</style>
<g id="Logo">
	<g>
		<g>
			<g>
				<path class="st0" d="M55.3,54.2V15.9H14.2c0,13.3,1,26.2,2.9,38.3H55.3z"/>
				<path class="st0" d="M55.3,66.3h-36c6.9,32.7,20.2,57.1,36,62.2V66.3z"/>
			</g>
			<g>
				<path class="st0" d="M67.3,54.2V15.9h41.1c0,13.3-1,26.2-2.9,38.3H67.3z"/>
				<path class="st0" d="M67.3,66.3h36c-6.9,32.7-20.2,57.1-36,62.2V66.3z"/>
			</g>
		</g>
		<g>
			<path class="st1" d="M153.5,65.8c-2.4,0-4.7-0.3-6.9-1c-2.2-0.7-4.4-1.7-6.6-3.1l1.3-8.4h0.3c2.1,1.6,4.1,2.7,6.2,3.3
				c2.1,0.6,4,0.9,5.7,0.9c5,0,7.5-1.9,7.5-5.6c0-1.3-0.4-2.5-1.1-3.5c-0.7-1-2-2.1-3.8-3.1l-6-3.4c-3.5-1.9-5.9-4-7.4-6.2
				c-1.5-2.2-2.2-4.7-2.2-7.4c0-4.2,1.4-7.5,4.2-9.9c2.8-2.4,6.6-3.6,11.3-3.6c4.3,0,8.3,1.1,11.9,3.2l-1.3,8.1h-0.3
				c-1.4-1-3-1.7-4.9-2.2c-1.9-0.5-3.6-0.7-5.3-0.7c-4.4,0-6.6,1.7-6.6,5c0,1.2,0.4,2.3,1.1,3.3c0.8,1,2.2,2.1,4.4,3.3l5.3,2.9
				c3.3,1.8,5.8,3.8,7.3,6c1.5,2.2,2.3,4.8,2.3,7.8c0,4.5-1.5,8-4.5,10.6C162.6,64.5,158.6,65.8,153.5,65.8z"/>
			<path class="st1" d="M183.8,64.6c-1.6-2.2-2.7-4.6-3.5-7.4c-0.8-2.8-1.2-6-1.2-9.5v-8.1h-5.7V32h5.7v-9.7h9V32h7.7l-1.3,7.6H188
				V47c0,3.7,0.5,6.9,1.5,9.6c1,2.7,2.4,5.3,4.3,7.6v0.5H183.8z"/>
			<path class="st1" d="M209,65.1c-3.2,0-5.7-0.8-7.5-2.5c-1.9-1.7-2.8-4-2.8-7.1c0-3.1,1.1-5.5,3.2-7.3c2.2-1.8,5.1-2.8,8.8-3.2
				l9.1-0.9v-0.1c0-1.8-0.5-3.1-1.5-4c-1-0.9-2.8-1.4-5.4-1.4c-1.9,0-3.9,0.2-5.9,0.7c-2,0.5-3.6,1-4.8,1.6h-0.4l1.3-7.7
				c1.4-0.6,3.1-1,5.1-1.5c2-0.4,4.2-0.6,6.4-0.6c4.9,0,8.5,1.1,10.8,3.4c2.3,2.3,3.4,5.6,3.4,10V55c0,1.7,0.1,3.4,0.4,5
				c0.2,1.6,0.6,3,1.2,4.2v0.5h-8.5c-0.3-0.6-0.5-1.5-0.7-2.4c-0.2-1-0.3-1.9-0.4-2.7h-0.4c-0.8,1.6-2.3,2.9-4.3,4
				C214.1,64.6,211.7,65.1,209,65.1z M207.9,54.9c0,1,0.3,1.8,0.9,2.4c0.6,0.6,1.7,1,3.1,1c2.3,0,4.1-0.7,5.6-2
				c1.5-1.3,2.2-3.1,2.2-5.2v-0.8l-6.9,0.8c-1.7,0.2-3,0.6-3.8,1.1C208.3,52.8,207.9,53.7,207.9,54.9z"/>
			<path class="st1" d="M260.9,64.6v-4.9h-0.4c-1,1.8-2.4,3.2-4.3,4.2c-1.9,1-4,1.5-6.4,1.5c-2.9,0-5.4-0.7-7.6-2.1
				c-2.2-1.4-3.9-3.4-5.1-6c-1.2-2.6-1.8-5.6-1.8-9c0-3.4,0.6-6.4,1.8-9c1.2-2.6,2.9-4.5,5.1-6c2.2-1.4,4.7-2.1,7.6-2.1
				c2.2,0,4.2,0.4,6,1.3c1.8,0.9,3.2,2.1,4.2,3.6h0.5V15.9h9.1v48.7H260.9z M252.8,57.5c2.5,0,4.4-0.9,5.9-2.6
				c1.5-1.7,2.2-4,2.2-6.7c0-2.8-0.7-5.1-2.2-6.7c-1.5-1.7-3.5-2.5-5.9-2.5c-2.5,0-4.5,0.8-5.9,2.5c-1.5,1.6-2.2,3.9-2.2,6.8
				c0,2.8,0.7,5.1,2.2,6.7C248.3,56.7,250.2,57.5,252.8,57.5z"/>
			<path class="st1" d="M284.9,64.6c-1.6-2.2-2.7-4.6-3.5-7.4c-0.8-2.8-1.2-6-1.2-9.5v-8.1h-5.7V32h5.7v-9.7h9V32h7.7l-1.3,7.6h-6.4
				V47c0,3.7,0.5,6.9,1.5,9.6c1,2.7,2.4,5.3,4.3,7.6v0.5H284.9z"/>
			<path class="st1" d="M161.6,126.7h-11c-1.1-2.4-2.3-5.4-3.5-9c-1.3-3.6-2.5-7.5-3.6-11.9c-1.2-4.4-2.2-8.9-3.1-13.7
				c-0.9-4.7-1.5-9.4-1.8-14.1h9.9c0.3,4.3,0.9,8.8,1.7,13.5c0.8,4.7,1.7,9.2,2.8,13.7c1.1,4.4,2.2,8.5,3.4,12.2h0.5l9.9-33h7.3
				l9.9,33h0.5c1.2-3.7,2.3-7.8,3.3-12.2c1-4.4,1.9-9,2.7-13.7c0.8-4.7,1.3-9.2,1.7-13.5h9.7c-0.3,4.7-1,9.4-1.8,14.1
				c-0.9,4.7-1.9,9.3-3.1,13.7c-1.2,4.4-2.4,8.3-3.6,11.9c-1.3,3.6-2.4,6.6-3.5,9h-11l-8.2-27.4H170L161.6,126.7z"/>
			<path class="st1" d="M213.1,88.8c-1.7,0-3.1-0.5-4.2-1.6c-1.1-1.1-1.6-2.4-1.6-4c0-1.6,0.5-3,1.6-4c1.1-1,2.5-1.6,4.2-1.6
				s3.1,0.5,4.2,1.6c1.1,1,1.6,2.4,1.6,4c0,1.6-0.5,2.9-1.6,4C216.2,88.3,214.8,88.8,213.1,88.8z M208.5,126.7V94h9.1v32.7H208.5z"
				/>
			<path class="st1" d="M241.4,127.5c-3.6,0-6.6-0.7-9.2-2.1c-2.6-1.4-4.6-3.4-5.9-5.9c-1.4-2.6-2.1-5.5-2.1-9
				c0-3.6,0.7-6.7,2.2-9.3c1.5-2.6,3.5-4.6,6-5.9c2.6-1.4,5.5-2.1,8.7-2.1c4.8,0,8.5,1.5,11.2,4.4c2.7,2.9,4,7,4,12.2v2l-22.5,2.5
				c0.6,2,1.7,3.4,3.2,4.2c1.6,0.8,3.5,1.2,5.7,1.2c2.1,0,4.2-0.3,6.4-0.8c2.1-0.6,3.7-1.2,4.8-1.9h0.5l-1.3,7.8
				c-1.2,0.6-2.9,1.2-5.1,1.8C245.9,127.2,243.7,127.5,241.4,127.5z M240.9,100.5c-2,0-3.7,0.6-5,1.9c-1.3,1.2-2.1,3.1-2.4,5.6
				l13.9-1.6c-0.3-2-1-3.5-2.1-4.4C244,101,242.6,100.5,240.9,100.5z"/>
			<path class="st1" d="M262.6,126.7V94h8.2v5.5h0.4c0.8-1.9,2.2-3.4,4.1-4.6c1.9-1.1,4.1-1.7,6.6-1.7c3.8,0,6.8,1.3,9,3.8
				c2.2,2.5,3.3,6.1,3.3,10.6v19.1h-9.1v-17.9c0-5.1-2.1-7.7-6.3-7.7c-2.1,0-3.8,0.8-5.1,2.3c-1.3,1.5-1.9,3.5-1.9,6v17.3H262.6z"/>
		</g>
	</g>
	<rect x="326.9" y="15.9" class="st0" width="1.5" height="112.6"/>
</g>
<g id="Magistratsbezeichnung">
	<g>
		<g>
			<path class="st1" d="M359.3,126.7v-18.7h2.4v9.1h0.1l8.7-9.1h3v0.1l-7.4,7.4c1.2,1.2,2.3,2.5,3.3,3.8c1,1.3,1.9,2.6,2.6,3.8
				c0.8,1.3,1.4,2.4,1.9,3.5h-2.7c-0.6-1.3-1.4-2.8-2.5-4.4c-1.1-1.7-2.5-3.4-4.2-5.1l-2.8,2.8v6.7H359.3z"/>
			<path class="st1" d="M380.9,127c-1.8,0-3.1-0.5-4.1-1.6c-1-1.1-1.5-2.5-1.5-4.5v-6.6h2.2v6.8c0,1.2,0.3,2.2,0.9,2.9
				c0.6,0.7,1.4,1,2.4,1c1,0,1.9-0.3,2.4-1c0.6-0.7,0.9-1.6,0.9-2.9v-6.8h2.2v6.6c0,1.9-0.5,3.4-1.4,4.5
				C384.1,126.5,382.7,127,380.9,127z"/>
			<path class="st1" d="M389.9,126.7v-19.4h2.2v19.4H389.9z"/>
			<path class="st1" d="M402.2,126.8h-1.3c-1.3,0-2.3-0.4-3-1.3c-0.8-0.9-1.1-2-1.1-3.5v-5.7h-2.5v-1.9h2.5v-3.9h2.2v3.9h3.6
				l-0.3,1.9H399v5.4c0,1.1,0.2,1.9,0.7,2.4c0.5,0.5,1.2,0.8,2.2,0.8h0.7L402.2,126.8z"/>
			<path class="st1" d="M410.4,127c-1.8,0-3.1-0.5-4.1-1.6c-1-1.1-1.5-2.5-1.5-4.5v-6.6h2.2v6.8c0,1.2,0.3,2.2,0.9,2.9
				c0.6,0.7,1.4,1,2.4,1c1,0,1.9-0.3,2.4-1c0.6-0.7,0.9-1.6,0.9-2.9v-6.8h2.2v6.6c0,1.9-0.5,3.4-1.4,4.5
				C413.5,126.5,412.2,127,410.4,127z"/>
			<path class="st1" d="M419.4,126.7v-12.4h2.1v2.4h0.1c0.3-0.8,0.7-1.5,1.4-2c0.6-0.5,1.4-0.7,2.3-0.7c0.5,0,1,0.1,1.3,0.3v2.2
				h-0.1c-0.5-0.2-1-0.3-1.5-0.3c-1,0-1.8,0.4-2.4,1.2c-0.6,0.8-0.9,1.9-0.9,3.2v6.1H419.4z"/>
		</g>
	</g>
</g>
</svg>
